<svg width="79" height="79" viewBox="0 0 79 79" fill="none" xmlns="http://www.w3.org/2000/svg">
<path d="M78.942 37.5711C78.9107 37.2548 78.8796 36.9388 78.8487 36.6232C78.6597 34.7076 78.4583 32.8056 78.0458 30.9097C77.5779 28.7628 76.9262 26.6602 76.0977 24.6252C75.2592 22.5725 74.2467 20.5952 73.0713 18.7152C72.8983 18.4379 72.7219 18.1627 72.542 17.8896C67.719 10.5632 61.185 5.37847 52.9399 2.3353C50.6376 1.49138 48.2588 0.873205 45.837 0.489499C45.235 0.392275 44.6308 0.309883 44.0243 0.242321C43.3939 0.170639 42.762 0.111934 42.1287 0.0662063C41.8261 0.0439603 41.524 0.00441184 41.2208 0.00441184C40.5828 0.000704171 39.9447 0.00441184 39.3061 0.00441184C38.6749 0.0037939 38.0449 -0.0128906 37.4167 0.0229502C37.1359 0.0390168 36.8553 0.0575551 36.5749 0.0785652C36.0178 0.119762 35.4619 0.173111 34.9073 0.238613C34.3526 0.304115 33.8033 0.379298 33.2594 0.464163C32.7155 0.549851 32.1734 0.646663 31.6332 0.754597C31.0929 0.862531 30.5576 0.981177 30.0273 1.11053C29.4961 1.23989 28.968 1.38058 28.443 1.53259C27.918 1.6846 27.397 1.84733 26.8798 2.02077C26.3622 2.19461 25.8475 2.38 25.3357 2.57692C24.8239 2.77384 24.318 2.98105 23.8182 3.19857C23.3142 3.41773 22.8149 3.64761 22.3204 3.8882C21.8258 4.12878 21.3338 4.38111 20.8442 4.64518C20.3538 4.90966 19.8698 5.18464 19.3921 5.47013C18.9145 5.75563 18.4397 6.05203 17.9679 6.35936C11.8153 10.3756 7.13033 15.693 3.91283 22.3116C2.6238 24.962 1.64196 27.7512 0.986451 30.6248C0.631438 32.1558 0.374798 33.708 0.218106 35.2718C-0.022958 37.6188 -0.0642826 39.9821 0.0945777 42.3361C0.507162 48.1751 2.12538 53.6606 4.99679 58.7549C9.21651 66.2419 15.2282 71.8012 23.0319 75.4326C25.9012 76.7622 28.9247 77.7295 32.0328 78.3123L32.126 78.3302C33.3681 78.5638 34.6213 78.7343 35.8794 78.8517C36.1185 78.8517 36.3649 78.8968 36.6033 78.9135C37.552 78.992 38.505 78.9877 39.458 78.9957C39.7187 78.9957 39.9793 79 40.24 79C41.4966 78.9886 42.7516 78.906 43.9989 78.7528C45.0637 78.6313 46.1226 78.4686 47.1755 78.2647C48.2123 78.0628 49.2398 77.8195 50.2581 77.5349C51.2669 77.2523 52.263 76.9287 53.2462 76.5641C54.2295 76.1995 55.1947 75.7962 56.1417 75.3541C57.0941 74.908 58.027 74.4233 58.9403 73.9001C59.8639 73.3716 60.765 72.8064 61.6437 72.2045C62.5331 71.596 63.3978 70.9538 64.2378 70.2777C69.6668 65.9175 73.6506 60.4703 76.2287 54.0004C77.1136 51.7683 77.7871 49.458 78.2403 47.0999C78.6393 45.0458 78.9778 42.8892 78.9778 40.7919C78.9765 39.7247 79.0476 38.6315 78.942 37.5711ZM39.4747 76.9225C18.7943 76.8848 2.0982 60.1663 2.09079 39.4775C2.08338 18.8622 18.8437 2.08256 39.4228 2.07824C60.1366 2.07391 76.8877 18.8338 76.8735 39.5473C76.8586 60.1675 60.0946 76.92 39.4772 76.92L39.4747 76.9225Z" fill="#F7F6FC"/>
<path d="M62.5606 11.8499C56.5633 6.8396 49.639 4.08542 41.848 3.54101C36.7157 3.20491 31.5708 3.96795 26.7566 5.7792C20.8507 8.03223 15.8697 11.585 11.8134 16.4375C10.7161 17.7309 9.72659 19.1121 8.85492 20.5672V20.5672C8.7533 20.6796 8.67462 20.8108 8.62331 20.9535C8.55352 20.9992 8.53313 21.077 8.50658 21.1463C8.43661 21.2086 8.38854 21.2918 8.36946 21.3835L8.3077 21.4898L8.25458 21.5739L8.24717 21.5967L8.18849 21.6962C8.16829 21.7068 8.15166 21.7232 8.14068 21.7432C8.12969 21.7632 8.12484 21.786 8.12673 21.8087C8.0643 21.8572 8.02329 21.9281 8.01246 22.0064C8.0093 22.0067 8.00626 22.0078 8.00363 22.0096C8.00099 22.0114 7.99884 22.0138 7.99737 22.0166C7.9959 22.0195 7.99515 22.0226 7.9952 22.0258C7.99525 22.029 7.99609 22.0321 7.99764 22.0349L7.91364 22.177H7.91735H7.92105L7.88029 22.2536C7.80945 22.3189 7.76213 22.4058 7.74564 22.5008L7.69067 22.6102L7.63941 22.6917C7.63614 22.6929 7.63317 22.6947 7.63072 22.6972C7.62827 22.6996 7.62641 22.7026 7.62528 22.7059C7.62415 22.7091 7.62378 22.7126 7.6242 22.7161C7.62461 22.7195 7.6258 22.7228 7.62767 22.7257L7.57764 22.8166C7.55695 22.8284 7.54011 22.8459 7.52915 22.8671C7.5182 22.8882 7.51359 22.9121 7.51588 22.9358C7.51265 22.9367 7.50966 22.9383 7.50713 22.9405C7.50461 22.9428 7.50262 22.9455 7.50131 22.9486C7.50001 22.9517 7.49942 22.955 7.49959 22.9584C7.49976 22.9617 7.50068 22.965 7.50229 22.968L7.4467 23.0594C7.37843 23.1372 7.33292 23.2324 7.31515 23.3344C7.24263 23.4033 7.1945 23.494 7.17803 23.5927V23.5927L7.13665 23.6761V23.6804V23.6761C7.07282 23.7451 7.02997 23.8308 7.01312 23.9233C7.00997 23.9241 7.00707 23.9256 7.00467 23.9278C7.00226 23.93 7.00043 23.9327 6.99933 23.9358C6.99823 23.9388 6.9979 23.9421 6.99837 23.9453C6.99883 23.9485 7.00008 23.9516 7.002 23.9542V23.9542C6.94064 24.0107 6.90236 24.088 6.89453 24.1711V24.1711C6.88777 24.175 6.88261 24.1812 6.88001 24.1886C6.8774 24.1959 6.87752 24.204 6.88033 24.2113C6.8118 24.2834 6.76847 24.3757 6.7568 24.4745C6.67196 24.5854 6.61326 24.7141 6.5851 24.8508L6.51036 25.0152C6.4903 25.0326 6.47463 25.0545 6.46465 25.0791C6.45466 25.1037 6.45064 25.1303 6.45292 25.1567C6.43182 25.169 6.41496 25.1874 6.40458 25.2094C6.39421 25.2315 6.39082 25.2562 6.39486 25.2803V25.2803C6.39154 25.2813 6.38851 25.283 6.38603 25.2855C6.38356 25.2879 6.38172 25.2909 6.38068 25.2942C6.37964 25.2975 6.37943 25.301 6.38007 25.3044C6.38072 25.3078 6.38219 25.311 6.38436 25.3137L6.31951 25.4533C6.26825 25.4855 6.27072 25.538 6.27072 25.5893C6.24967 25.6018 6.23267 25.6201 6.22172 25.642C6.21077 25.6639 6.20634 25.6885 6.20895 25.7129V25.7129L6.15769 25.8365C6.10632 25.9066 6.07726 25.9906 6.07431 26.0775V26.0775L6.02304 26.201C6.00252 26.2154 5.98687 26.2357 5.97815 26.2593C5.96944 26.2828 5.96808 26.3084 5.97425 26.3327C5.96756 26.3368 5.96256 26.3432 5.96018 26.3506C5.9578 26.3581 5.95819 26.3662 5.96128 26.3735L5.91557 26.4563C5.90874 26.4625 5.90392 26.4707 5.90172 26.4797C5.89952 26.4887 5.90004 26.4982 5.90322 26.5069C5.88372 26.523 5.86881 26.5439 5.86003 26.5675C5.85124 26.5912 5.84888 26.6168 5.85319 26.6416C5.84621 26.6461 5.84092 26.6528 5.83813 26.6606C5.83533 26.6685 5.8352 26.677 5.83775 26.6849C5.7624 26.7584 5.75622 26.8585 5.73213 26.9525C5.67965 27.0185 5.6523 27.1011 5.65493 27.1854V27.1854C5.54716 27.3837 5.46912 27.5967 5.42331 27.8176C5.41654 27.8244 5.41175 27.833 5.40947 27.8424C5.40718 27.8517 5.40749 27.8615 5.41034 27.8707V27.8707C5.34858 27.9226 5.34858 27.9943 5.34858 28.0654L5.33993 28.0864C5.26643 28.168 5.25284 28.2718 5.23926 28.3737C5.23277 28.3812 5.22816 28.39 5.22579 28.3996C5.22343 28.4092 5.22339 28.4192 5.22567 28.4287C5.20494 28.4425 5.18884 28.4622 5.17948 28.4852C5.17011 28.5082 5.16791 28.5336 5.17317 28.5579L5.15773 28.6561C5.08728 28.7533 5.04944 28.8704 5.04964 28.9905V28.9905C5.04287 28.9962 5.03805 29.004 5.03584 29.0126C5.03363 29.0212 5.03414 29.0303 5.03729 29.0387C4.97552 29.0912 4.9712 29.1622 4.97552 29.2364L4.93414 29.36C4.90697 29.4409 4.8415 29.5114 4.86497 29.6072L4.84891 29.6912C4.74885 29.8766 4.71488 30.0817 4.6772 30.2857L4.6667 30.3475C4.68781 30.3685 4.70086 30.3963 4.70357 30.426C4.70628 30.4557 4.69848 30.4854 4.68153 30.51C4.69848 30.4854 4.70628 30.4557 4.70357 30.426C4.70086 30.3963 4.68781 30.3685 4.6667 30.3475C4.60494 30.4191 4.61112 30.5087 4.60494 30.5946C4.53638 30.6663 4.55182 30.7572 4.54935 30.8418C4.48388 30.9116 4.4845 30.9994 4.48203 31.089C4.46487 31.1051 4.45246 31.1256 4.44614 31.1482C4.43982 31.1709 4.43985 31.1949 4.44621 31.2175V31.2175C4.42335 31.3411 4.34183 31.4523 4.36777 31.5883L4.35727 31.6705C4.35727 31.7261 4.36653 31.7823 4.3653 31.8367C4.3653 31.7823 4.35974 31.7261 4.35727 31.6705C4.29185 31.7978 4.25616 31.9383 4.25289 32.0814L4.23497 32.2371C4.15225 32.4212 4.11294 32.6219 4.12009 32.8236C4.11682 32.8245 4.11385 32.8263 4.11148 32.8287C4.1091 32.8312 4.10739 32.8342 4.10652 32.8375C4.10565 32.8408 4.10565 32.8443 4.10651 32.8476C4.10737 32.8509 4.10907 32.8539 4.11145 32.8563C4.03856 32.9379 4.05277 33.0361 4.05771 33.1332C4.07317 33.1145 4.08586 33.0937 4.09539 33.0714C4.08586 33.0937 4.07317 33.1145 4.05771 33.1332L4.03918 33.2703C3.98359 33.3402 3.99409 33.4236 3.99348 33.5045C3.97227 33.5299 3.95713 33.5598 3.9492 33.5919C3.94128 33.6241 3.94079 33.6576 3.94777 33.6899V33.6899L3.8403 34.4315L3.81992 34.6786C3.75415 34.8562 3.72964 35.0464 3.74827 35.2348C3.74083 35.2417 3.73494 35.2501 3.731 35.2595C3.72706 35.2689 3.72516 35.279 3.72542 35.2892C3.64883 35.4647 3.70874 35.6519 3.67971 35.8317C3.5846 36.0597 3.63524 36.2989 3.62474 36.5331L3.61239 36.6418C3.57369 36.7243 3.5614 36.8166 3.57719 36.9063C3.59278 36.9232 3.60159 36.9452 3.60189 36.9681C3.60159 36.9452 3.59278 36.9232 3.57719 36.9063L3.57286 37.0299L3.56051 37.3389C3.52035 37.4582 3.51037 37.5856 3.53148 37.7097L3.52345 37.895C3.48022 38.9249 3.47919 39.9532 3.52036 40.9798L3.52345 41.1034C3.55037 41.1296 3.57364 41.1593 3.59263 41.1918C3.57273 41.158 3.54819 41.1272 3.51975 41.1003C3.49831 41.2874 3.51087 41.4769 3.5568 41.6596L3.57163 42.0303V42.0921C3.63332 43.1899 3.75705 44.2834 3.94221 45.3672C4.29321 47.4948 4.83649 49.586 5.56537 51.6153C7.81729 57.8528 11.4879 63.1022 16.6038 67.3111C22.5332 72.1928 29.355 74.8889 37.0119 75.4451C40.1348 75.6691 43.2736 75.4782 46.3463 74.8772C48.9282 74.383 51.4464 73.5997 53.8531 72.542C60.2931 69.6994 65.4812 65.3582 69.4177 59.5182C71.8123 55.9675 73.4941 52.0966 74.4959 47.9329C74.8924 46.2956 75.168 44.6313 75.3205 42.9535V42.8917L75.3242 42.7682C75.3065 42.6891 75.2939 42.609 75.2865 42.5284C75.2939 42.609 75.3065 42.6891 75.3242 42.7682L75.4279 41.4705L75.4427 40.8525L75.4533 40.1728L75.4563 40.0492C75.491 39.6792 75.491 39.3068 75.4563 38.9369V38.9369L75.452 38.7515C75.4483 38.5043 75.4446 38.2572 75.4409 38.01C75.3666 38.2404 75.3666 38.4883 75.4409 38.7188C75.3666 38.4883 75.3666 38.2404 75.4409 38.01C75.459 37.8245 75.4523 37.6375 75.4211 37.4538C75.3933 37.2066 75.4483 36.9477 75.3353 36.7092L75.3279 36.5856C75.3804 36.462 75.3415 36.3384 75.3242 36.2148L75.3174 36.0295C75.3272 35.9899 75.3019 35.9745 75.271 35.9621L75.2581 35.5351L75.2093 35.3466C75.2093 35.2861 75.2093 35.2255 75.2093 35.165C75.2093 35.0284 75.2414 34.8875 75.1555 34.7621L75.1339 34.5464C75.1532 34.441 75.1367 34.3323 75.087 34.2374L75.0753 34.1138C75.0456 33.913 75.0555 33.706 74.9733 33.5144L74.935 33.2506C74.9134 33.1035 74.9313 32.9478 74.8443 32.8137C74.8368 32.708 74.8517 32.5992 74.7986 32.5004C74.7646 32.2934 74.7467 32.0826 74.6621 31.8868C74.654 31.8077 74.6621 31.7242 74.6052 31.6575L74.5855 31.5185C74.5934 31.4893 74.5933 31.4586 74.5851 31.4296C74.5769 31.4005 74.5611 31.3742 74.5391 31.3535L74.5212 31.2707C74.4319 30.7292 74.2947 30.1967 74.1111 29.6795L74.0926 29.6022C74.1015 29.5689 74.1007 29.5338 74.0903 29.5009C74.08 29.4681 74.0604 29.4389 74.0339 29.4168L74.0222 29.355L73.9833 29.2457V29.2296C73.8943 28.9249 73.8153 28.6172 73.7158 28.3163C71.5584 21.7741 67.8482 16.2676 62.5606 11.8499ZM3.63401 41.4093C3.6407 41.3545 3.63478 41.2989 3.61672 41.2468C3.6348 41.2989 3.64072 41.3545 3.63401 41.4093V41.4093ZM3.69145 36.2637C3.69824 36.1333 3.67786 36.001 3.67724 35.8706C3.67848 36.001 3.69886 36.1333 3.69207 36.263L3.69145 36.2637ZM3.74642 35.2298C3.74494 35.2396 3.74224 35.2492 3.73839 35.2583C3.74225 35.2492 3.74494 35.2396 3.74642 35.2298V35.2298ZM9.06863 20.8669C9.06122 20.7359 9.04948 20.6074 8.89013 20.5747C9.0501 20.6068 9.06183 20.7353 9.06925 20.8663L9.06863 20.8669ZM7.21138 24.3596C7.17349 24.3804 7.13824 24.4057 7.10638 24.435C7.13771 24.4049 7.17255 24.3788 7.21015 24.3571L7.21138 24.3596ZM6.46527 25.158L6.43563 25.2197L6.46527 25.158ZM6.02675 26.201L6.00204 26.2672L6.02675 26.201ZM5.84146 26.7794C5.84363 26.8082 5.83861 26.837 5.82686 26.8634C5.8151 26.8897 5.79698 26.9127 5.77413 26.9302C5.7976 26.9127 5.81625 26.8895 5.82834 26.8628C5.84044 26.8361 5.84559 26.8068 5.84331 26.7776L5.84146 26.7794ZM73.7269 29.6961C73.7431 29.7332 73.7638 29.7681 73.7887 29.8C73.7861 29.8097 73.786 29.8199 73.7882 29.8297C73.7905 29.8395 73.7951 29.8486 73.8017 29.8562L73.8437 30.0187L73.8486 30.0403L73.8999 30.2115L73.919 30.2881C73.9318 30.2997 73.9437 30.3112 73.9549 30.3227C73.9437 30.3108 73.9318 30.2993 73.919 30.2881C73.9457 30.5153 74.0027 30.7379 74.0883 30.95L74.1086 31.0303L74.1167 31.0921L74.1506 31.2206L74.4681 32.7037L74.4829 32.8273C74.5188 32.8647 74.5501 32.9061 74.5762 32.9509C74.5501 32.9061 74.5188 32.8647 74.4829 32.8273C74.528 33.0127 74.5021 33.2098 74.596 33.3834L74.6176 33.5688C74.6304 33.5745 74.6428 33.5811 74.6546 33.5886C74.6428 33.5811 74.6304 33.5745 74.6176 33.5688L74.8535 35.2373L74.9048 35.1755L74.8535 35.2373C74.8412 35.2991 74.8393 35.3608 74.7516 35.3608C74.6491 35.3608 74.5459 35.3608 74.4428 35.3608H57.7906C57.8567 35.5747 58.0376 35.7069 58.0574 35.9114C58.3971 36.4398 58.4928 37.0342 58.5243 37.646C58.5684 38.0675 58.5108 38.4934 58.3563 38.8881L58.3428 39.0086L58.289 39.0778C58.291 39.0956 58.2895 39.1137 58.2847 39.1309V39.1309C58.2619 39.1595 58.2454 39.1925 58.2361 39.2278C58.2268 39.2631 58.2251 39.3 58.231 39.3361C58.2007 39.6951 58.0061 39.9917 57.8567 40.3038C57.6924 40.6461 57.5015 40.9749 57.3224 41.3098L57.2674 41.4217L56.8129 42.2058L57.1766 42.2318C57.3718 42.2287 57.5676 42.2225 57.7628 42.2225C63.3928 42.2225 69.023 42.2204 74.6534 42.2163C74.9184 42.2163 74.995 42.2602 74.9709 42.5482C74.7417 45.2937 74.2328 47.9861 73.3347 50.5882C69.6701 61.2 62.629 68.6028 52.2114 72.7966C49.8644 73.742 47.4142 74.3451 44.9097 74.7314C42.3775 75.1303 39.8089 75.247 37.2509 75.0793C29.6818 74.562 22.9137 71.95 17.0238 67.151C11.5474 62.687 7.72341 57.0872 5.55178 50.3516C4.87238 48.2654 4.42644 46.1279 4.138 43.9565C4.07192 43.4572 4.04968 42.9523 3.99101 42.4524C3.96815 42.2546 4.03115 42.2114 4.22015 42.2126C5.23926 42.2213 6.25836 42.2169 7.27685 42.2169C10.9205 42.2169 14.5646 42.219 18.2091 42.2231C18.4617 42.2231 18.584 42.1403 18.697 41.9222C19.2436 40.8649 19.8088 39.8175 20.3684 38.7663C20.424 38.7398 20.4301 38.6872 20.4363 38.6353C20.5576 38.4936 20.6413 38.3236 20.6797 38.141C20.7112 38.1292 20.7365 38.1138 20.7278 38.0724C20.7378 38.0579 20.7421 38.0404 20.7402 38.023V38.023C20.9706 37.7684 21.0836 37.4483 21.2263 37.1449C21.2311 37.1384 21.2344 37.1309 21.2359 37.123C21.2374 37.1151 21.2371 37.1069 21.2349 37.0991L21.3016 37.0256C21.3492 37.0027 21.3554 36.9582 21.3578 36.9131L21.4091 36.8353C21.4328 36.8126 21.4513 36.7851 21.4632 36.7546C21.4752 36.724 21.4803 36.6913 21.4783 36.6585C21.4783 36.6431 21.4783 36.627 21.4783 36.6116C21.4783 36.627 21.4783 36.6431 21.4783 36.6585L21.7982 36.1024L21.8439 36.0301C21.8506 36.0268 21.8557 36.0209 21.8581 36.0139C21.8605 36.0068 21.8601 35.9991 21.8569 35.9924C21.8569 35.9664 21.8569 35.9405 21.8569 35.9145C21.8569 35.9405 21.8569 35.9664 21.8569 35.9918C21.9186 35.8774 21.9804 35.7613 22.0422 35.6482C22.2126 35.3497 22.2133 35.3497 21.8711 35.3497H4.73526C4.54997 35.3497 4.36468 35.3559 4.17939 35.359L4.10836 35.2873L4.20965 34.484L4.22633 34.3604C4.2708 34.0316 4.36653 33.7097 4.36838 33.3717C4.32115 33.44 4.28217 33.5136 4.25227 33.5911C4.28217 33.5136 4.32115 33.44 4.36838 33.3717L4.41224 33.2481L4.42088 33.1245L4.44621 32.9366L4.47894 32.8223C4.53305 32.6848 4.55787 32.5375 4.55182 32.3898C4.57881 32.3552 4.59797 32.3152 4.608 32.2726C4.61802 32.2299 4.61867 32.1855 4.60988 32.1426V32.1426C4.65471 32.046 4.67588 31.9401 4.67165 31.8336C4.70037 31.8 4.7209 31.7602 4.73162 31.7173C4.74233 31.6744 4.74295 31.6296 4.73341 31.5864L4.747 31.4937C4.747 31.448 4.74082 31.4011 4.73959 31.3547C4.73959 31.4004 4.747 31.448 4.747 31.4931C4.81679 31.3918 4.82606 31.2682 4.8415 31.1514L4.86805 30.9858L4.8977 30.8974L4.86805 30.9858C4.88887 30.9694 4.90442 30.9472 4.91276 30.9221C4.92111 30.8969 4.92188 30.8699 4.915 30.8443V30.8443L4.93044 30.7479C4.94917 30.7281 4.96274 30.704 4.96995 30.6777C4.97717 30.6514 4.97781 30.6237 4.97182 30.5971L4.98355 30.531C4.9807 30.4198 4.9871 30.3086 5.0027 30.1985C4.9871 30.3086 4.9807 30.4198 4.98355 30.531C5.0762 30.358 5.09782 30.1639 5.14599 29.9748L5.17626 29.8074C5.25532 29.7357 5.24543 29.6343 5.26458 29.5429L5.30287 29.3859C5.32488 29.3684 5.34119 29.3447 5.34977 29.3178C5.35834 29.291 5.35878 29.2622 5.35105 29.2352L5.36711 29.1567L5.41096 29.0498L5.46655 28.8644L5.47705 28.8026C5.48027 28.8012 5.48317 28.7992 5.48557 28.7966C5.48796 28.794 5.4898 28.791 5.49096 28.7877C5.49212 28.7844 5.49258 28.7809 5.49231 28.7774C5.49205 28.7739 5.49105 28.7705 5.4894 28.7674C5.51196 28.7501 5.52903 28.7267 5.53857 28.6999C5.5481 28.6732 5.54969 28.6442 5.54314 28.6166L5.55611 28.6024L5.55055 28.5845C5.57047 28.5649 5.58541 28.5408 5.59411 28.5142C5.60282 28.4877 5.60503 28.4594 5.60058 28.4318C5.62766 28.4005 5.648 28.3639 5.66033 28.3244C5.67265 28.2848 5.6767 28.2431 5.67222 28.202V28.202C5.74265 28.1075 5.78214 27.9935 5.78525 27.8757C5.79197 27.8722 5.79708 27.8663 5.7995 27.8592C5.80192 27.852 5.80146 27.8442 5.79822 27.8374C5.82075 27.8208 5.83792 27.7979 5.84758 27.7717C5.85724 27.7454 5.85898 27.7169 5.85257 27.6897L5.91434 27.5043C5.90568 27.4936 5.89784 27.4822 5.89087 27.4703C5.89784 27.4822 5.90568 27.4936 5.91434 27.5043C5.9761 27.4567 5.9761 27.3875 5.9761 27.3189L5.98166 27.3004L6.02984 27.1947L6.0774 27.0711L6.21266 26.7003C6.21936 26.6966 6.22445 26.6904 6.22695 26.6832C6.22946 26.6759 6.22921 26.6679 6.22625 26.6608V26.6608C6.31282 26.5216 6.37292 26.3676 6.40351 26.2066C6.42848 26.1868 6.44791 26.1608 6.45992 26.1313C6.47193 26.1017 6.47611 26.0696 6.47207 26.0379C6.47577 26.0033 6.47886 25.9681 6.48195 25.9335C6.47824 25.9681 6.47516 26.0033 6.47207 26.0379C6.59552 25.8164 6.6959 25.5829 6.77162 25.3409C6.77819 25.3363 6.78284 25.3295 6.78467 25.3218C6.78649 25.314 6.78537 25.3058 6.78151 25.2988L6.84327 25.1641C6.86438 25.1497 6.88086 25.1295 6.89073 25.1059C6.90059 25.0824 6.90342 25.0564 6.89886 25.0313L6.91677 25.027L6.91368 25.0115C7.04302 24.8087 7.14363 24.5888 7.21262 24.3583C7.25942 24.2785 7.2993 24.1947 7.33182 24.1081V24.1081C7.50016 23.8325 7.6448 23.543 7.76417 23.2429L7.77899 23.2343V23.2176L7.82964 23.1194C7.83278 23.119 7.83577 23.1179 7.83834 23.116C7.84092 23.1142 7.84298 23.1118 7.84434 23.1089C7.8457 23.1061 7.84631 23.1029 7.84612 23.0998C7.84592 23.0966 7.84493 23.0936 7.84323 23.0909C7.84323 23.0631 7.83952 23.0353 7.83891 23.0081C7.83891 23.0353 7.83891 23.0631 7.84323 23.0909C7.9284 22.994 7.98974 22.8784 8.02234 22.7535L8.43246 21.999C8.44387 21.9851 8.45153 21.9685 8.45469 21.9508C8.48541 21.9285 8.51107 21.9 8.53002 21.8671C8.54896 21.8342 8.56076 21.7976 8.56463 21.7599V21.7599C8.69679 21.5939 8.80472 21.41 8.88519 21.2136V21.2136C8.9714 21.1274 9.03505 21.0213 9.07048 20.9046V20.9046C9.70727 19.9481 10.3292 18.9822 11.0247 18.0652C14.5115 13.466 18.8475 9.90378 24.0328 7.37844C29.5226 4.73733 35.5968 3.54603 41.677 3.91795C48.8793 4.39253 55.3793 6.79758 61.1153 11.1899C66.2418 15.1157 70.0199 20.0883 72.4799 26.062C72.968 27.2473 73.3844 28.4609 73.7269 29.6961V29.6961ZM21.855 35.841C21.8726 35.7529 21.8842 35.6637 21.8896 35.574C21.8842 35.6637 21.8726 35.7529 21.855 35.841V35.841Z" fill="#F7F6FC"/>
<path d="M75.207 35.3508L75.2558 35.5393C75.2626 35.4701 75.2855 35.3972 75.207 35.3508Z" fill="#F7F6FC"/>
<path d="M73.8981 30.2101L73.8468 30.0389C73.8414 30.0695 73.8432 30.1009 73.8521 30.1306C73.861 30.1604 73.8767 30.1876 73.8981 30.2101V30.2101Z" fill="#F7F6FC"/>
<path d="M73.8406 30.018L73.7986 29.8555C73.7911 29.8839 73.7911 29.9138 73.7984 29.9422C73.8058 29.9707 73.8203 29.9968 73.8406 30.018V30.018Z" fill="#F7F6FC"/>
<path d="M22.5329 47.2241C22.7503 47.2241 22.8559 47.1531 22.9504 46.9646C24.4262 44.0281 25.9069 41.0943 27.3925 38.1632C27.6099 37.7337 27.7446 37.2363 28.0719 36.8946C28.8007 36.1376 29.616 35.4764 30.5832 35.029C30.981 34.8436 31.393 34.7398 31.8364 34.7886C32.3812 34.8504 32.6128 35.1513 32.5356 35.6921C32.501 35.9155 32.4366 36.1333 32.3441 36.3397C31.905 37.3593 31.267 38.2553 30.5845 39.1204C29.4425 40.567 28.7933 42.1805 28.8841 44.046C28.9261 44.9112 29.2745 45.6527 29.9804 46.165C31.1539 47.0214 32.4572 47.3768 33.9062 47.0604C35.0753 46.8052 36.1383 46.3034 37.1383 45.6607C37.3063 45.5526 37.4082 45.5662 37.5644 45.6787C38.1635 46.1112 38.7522 46.5617 39.4723 46.7866C40.7564 47.1877 42.0726 47.281 43.4055 47.184C44.1855 47.1277 44.9545 47.0054 45.6809 46.6896C46.3551 46.3949 46.9146 45.8878 47.2743 45.2456C47.6339 44.6035 47.7741 43.8613 47.6734 43.1321C47.5535 42.2997 47.1391 41.6052 46.5937 40.9891C45.9322 40.242 45.2442 39.5184 44.5759 38.7774C44.1355 38.2893 43.6945 37.7974 43.3653 37.2233C43.0157 36.6146 43.0905 36.04 43.5722 35.5283C43.8373 35.2378 44.1725 35.0201 44.5456 34.8961C45.4375 34.6113 46.3473 34.6038 47.2558 34.7923C47.7036 34.885 48.0304 35.1631 48.2441 35.5876C47.7845 35.6921 47.3374 35.6179 46.9248 35.7563C45.9872 36.0708 45.6104 37.1714 46.0941 38.1391C46.5882 39.1223 47.8012 39.5746 48.9593 39.2224C49.551 39.0388 49.9654 38.6835 50.089 38.0742C50.2798 37.1553 50.2835 36.2494 49.6869 35.4498C49.3061 34.9333 48.7997 34.5227 48.2156 34.2572C47.567 33.9694 46.8759 33.789 46.1694 33.7233C44.469 33.5447 42.8218 33.719 41.2715 34.4772C39.964 35.1167 39.3883 36.1425 39.5082 37.5409C39.5909 38.5111 40.035 39.32 40.6403 40.0572C41.2944 40.8537 42.0609 41.5403 42.7341 42.3238C43.1164 42.77 43.4709 43.2359 43.6173 43.823C44.0645 45.615 42.8941 46.5994 41.4679 46.5419C40.5699 46.5048 39.7083 46.2614 38.8701 45.9413C38.7035 45.8826 38.5547 45.7822 38.4378 45.6496C38.3859 45.5878 38.3143 45.5149 38.3637 45.4333C38.4131 45.3518 38.4958 45.421 38.5644 45.4234C38.8269 45.4327 39.0709 45.5897 39.3507 45.4889C39.9337 45.2782 40.4717 44.4384 40.4006 43.8205C40.2771 42.7193 39.371 41.9333 38.1926 41.9049C37.4465 41.8863 36.8955 42.1984 36.5163 42.8466C36.1371 43.4948 36.3032 44.0448 36.7263 44.5769C36.7382 44.5938 36.7514 44.6097 36.7658 44.6244C36.8517 44.7023 36.8109 44.7604 36.743 44.824C35.9814 45.539 35.1186 46.0822 34.0982 46.3368C33.5745 46.4678 32.9247 46.0853 32.8426 45.5996C32.7617 45.1274 32.795 44.6584 33.0458 44.2252C33.9776 42.6165 34.9067 41.0062 35.8332 39.3942C36.486 38.254 36.3922 36.711 35.5892 35.7353C35.109 35.1555 34.5416 34.6539 33.9074 34.2485C33.4374 33.9457 32.9192 33.816 32.3596 33.8048C31.267 33.7851 30.2472 34.0576 29.2528 34.5767C29.2461 34.4067 29.3263 34.319 29.3764 34.2226C31.3668 30.2677 33.3583 26.3147 35.3508 22.3636C35.9722 21.1277 36.9622 20.3386 38.2537 19.8955C38.3986 19.8457 38.5408 19.7886 38.6799 19.7244C38.825 19.657 38.9659 19.5569 38.9387 19.3814C38.9115 19.2059 38.7633 19.1058 38.5965 19.0619C38.4967 19.0381 38.3937 19.03 38.2914 19.0378C37.9122 19.0601 37.5354 19.0996 37.1586 19.1614C35.5324 19.4049 34.0087 19.9326 32.6363 20.8428C31.8167 21.386 31.0638 22.0169 30.5888 22.9012C26.5124 30.4694 22.4417 38.0402 18.3768 45.6138C18.0964 46.1353 17.8209 46.6581 17.5195 47.2204H17.837C19.404 47.2186 20.9684 47.2112 22.5329 47.2241Z" fill="#F7F6FC"/>
<path d="M25.1271 16.9023L25.1152 16.9195H25.1225L25.1437 16.9003L25.1271 16.9023Z" fill="#F7F6FC"/>
<path d="M24.083 14.431C24.2065 14.3828 24.3189 14.3173 24.4634 14.3025L23.5771 14.9056C23.5771 15.0036 23.5783 15.1015 23.5808 15.1991L24.2602 14.8197L24.4017 14.7764L24.2596 14.8197L24.3831 14.8994C24.1274 15.0354 23.9187 15.2547 23.6284 15.332C23.601 15.4375 23.601 15.5484 23.6284 15.6539L24.8501 15.0106C24.4821 15.3483 24.0801 15.6469 23.6506 15.9017V16.1199C24.0212 16.0482 24.2849 15.7553 24.6388 15.6434C24.8241 15.4747 25.0539 15.3882 25.2731 15.2776C25.0934 15.437 24.9205 15.6051 24.6901 15.6953C24.3832 15.9526 24.0564 16.1852 23.713 16.3911L23.7056 16.6247C23.973 16.5419 24.1966 16.3732 24.4424 16.2496C24.6784 16.0531 24.9588 15.9326 25.2454 15.8096C25.057 15.9888 24.8674 16.165 24.6222 16.2712L23.7327 16.9164L23.7235 17.0956C23.9755 17.0956 24.1305 16.8917 24.3411 16.8008C24.4418 16.757 24.5351 16.6958 24.632 16.642L24.7062 16.5907C24.8266 16.5209 24.9174 16.3998 25.0681 16.3837C25.1916 16.2738 25.3365 16.1907 25.4936 16.1396C25.4183 16.2991 25.2781 16.3751 25.1231 16.4319C25.0273 16.4987 24.9711 16.621 24.8383 16.6365L24.7587 16.6982C24.7346 16.7489 24.6864 16.7514 24.6401 16.76C24.384 17.0005 24.0999 17.2092 23.7939 17.3817C23.7769 17.4174 23.7688 17.4568 23.7706 17.4963C23.7723 17.5359 23.7837 17.5744 23.8038 17.6085C23.8155 17.6085 23.8279 17.6147 23.8353 17.6085C24.0177 17.5084 24.1997 17.4076 24.3813 17.3063C24.6104 17.1314 24.8501 16.9769 25.136 16.9016C25.2298 16.7589 25.3716 16.6545 25.5356 16.6074C25.5596 16.5749 25.5912 16.5488 25.6276 16.5314C25.664 16.5139 25.7041 16.5057 25.7444 16.5073C25.7274 16.5416 25.7026 16.5714 25.672 16.5945C25.6415 16.6175 25.606 16.6332 25.5684 16.6402C25.4726 16.7588 25.3559 16.8435 25.1317 16.9151C24.9273 17.1005 24.7519 17.3273 24.4523 17.3817C24.3572 17.5949 24.1373 17.6647 23.9675 17.7864C23.8149 17.8958 23.7785 18.0046 23.855 18.1832C28.6313 15.1435 33.8417 13.6617 39.5085 13.6567C45.1754 13.6518 50.379 15.1664 55.1571 18.2085C55.2503 17.965 55.1941 17.8062 54.9816 17.6833C54.7964 17.5757 54.6277 17.4361 54.4523 17.3125C54.1972 17.1351 53.9137 16.9967 53.6976 16.765L53.214 16.4665C53.461 16.4492 53.5845 16.5642 53.7081 16.6723L54.4492 17.1246L55.2275 17.5634C55.3041 17.2352 54.9804 17.2408 54.8723 17.0789C54.6432 16.9671 54.4499 16.8039 54.2547 16.6463C54.0904 16.5574 53.9242 16.4702 53.7958 16.2756C53.5839 16.2336 53.4975 16.11 53.3906 16.0191C53.5596 16.0455 53.7115 16.1371 53.8137 16.2743C53.9846 16.3044 54.1421 16.3867 54.2646 16.5098C54.4943 16.6476 54.7537 16.7378 54.944 16.9368C55.0619 16.9139 55.1348 17.0937 55.267 17.0091C55.2732 17.0035 55.2849 16.998 55.2849 16.9924C55.2832 16.9773 55.2801 16.9624 55.2756 16.9479L55.2559 16.8243C54.8921 16.621 54.5672 16.3615 54.2318 16.1161L54.1256 16.0272C53.9354 15.9413 53.7482 15.8504 53.6451 15.6521C53.6159 15.6544 53.5865 15.65 53.5592 15.6393C53.5319 15.6286 53.5074 15.6118 53.4876 15.5903L53.5833 15.5804L53.4079 15.5186C53.3995 15.4952 53.386 15.4741 53.3684 15.4566C53.3508 15.4392 53.3294 15.4259 53.306 15.4179C53.3294 15.4259 53.3508 15.4392 53.3684 15.4566C53.386 15.4741 53.3995 15.4952 53.4079 15.5186L53.5833 15.5804L53.6451 15.6527C53.8457 15.7195 54.0311 15.8256 54.1905 15.9647L54.3004 16.0463L55.3139 16.5611L55.3275 16.4461C55.2336 16.2045 54.9761 16.1526 54.8081 15.9969C54.7537 15.9468 54.6395 15.9079 54.7111 15.8115C54.7673 15.7361 54.8402 15.8208 54.9014 15.8455C55.0589 15.9073 55.1768 16.0581 55.3652 16.0506V15.8992L53.8359 14.7814C54.3788 14.9841 54.8433 15.3375 55.3701 15.573C55.3726 15.4906 55.3751 15.4098 55.3776 15.3307L54.5425 14.7746C54.3622 14.6782 54.1719 14.5948 54.0255 14.3717C54.2726 14.4038 54.4072 14.5466 54.566 14.6411C54.8301 14.83 55.1218 14.9772 55.4307 15.0774C55.4307 14.9979 55.4307 14.9184 55.4307 14.8389C55.0175 14.6065 54.6537 14.3025 54.2658 14.0355L55.4393 14.6009C55.4955 14.4322 55.4393 14.3216 55.2985 14.2067C54.4664 13.5361 53.574 12.944 52.6328 12.4381C49.5995 10.7796 46.3439 9.82547 42.9117 9.44481C40.4157 9.16803 37.8951 9.20186 35.4074 9.54554C33.3327 9.82381 31.2973 10.3422 29.3422 11.0904C27.3317 11.8653 25.43 12.8423 23.7148 14.1634C23.5431 14.2957 23.477 14.4316 23.5333 14.6337C23.7624 14.6881 23.9032 14.5033 24.083 14.431ZM53.5283 15.078C53.7371 15.0996 53.8878 15.2399 54.0595 15.3375C54.2312 15.4352 54.3949 15.5322 54.5586 15.636C54.6296 15.6811 54.7636 15.7225 54.6914 15.8319C54.6296 15.9203 54.5468 15.8189 54.4838 15.7787C54.3121 15.6694 54.1435 15.5538 53.9743 15.4407C53.8155 15.3326 53.6327 15.2553 53.5215 15.0873L53.5296 15.0792L53.5117 15.0693L53.5283 15.078ZM53.4011 15.5204C53.3623 15.5154 53.3251 15.5017 53.2922 15.4803C53.2594 15.4589 53.2318 15.4304 53.2115 15.3969C53.2316 15.4309 53.2592 15.4599 53.2921 15.4818C53.3251 15.5036 53.3625 15.5177 53.4017 15.5229L53.4011 15.5204ZM47.7349 13.5331C47.9418 12.8472 48.1598 12.1644 48.3599 11.4766C48.4112 11.3011 48.4754 11.2325 48.6502 11.316C48.7048 11.3452 48.7636 11.366 48.8244 11.3777C49.0597 11.4105 49.1542 11.5143 49.0251 11.7448C49.0218 11.7544 49.0196 11.7644 49.0183 11.7745C48.8145 12.4678 48.8151 12.4672 49.5347 12.6112C49.6526 12.6346 49.728 12.6241 49.7626 12.4876C49.8071 12.309 49.8917 12.1391 49.9213 11.9586C49.9553 11.7522 50.0498 11.7287 50.2153 11.8023C50.2357 11.8073 50.2563 11.811 50.2771 11.8134C50.673 11.9302 50.6761 11.9314 50.5563 12.3362C50.371 12.9541 50.1857 13.5721 49.993 14.19C49.9695 14.2648 49.9837 14.4193 49.8231 14.3847C49.6607 14.334 49.505 14.2833 49.3481 14.237C49.2246 14.1999 49.2691 14.1165 49.2919 14.0405C49.3339 13.8717 49.3859 13.7056 49.4476 13.543C49.5359 13.3397 49.4945 13.2489 49.2728 13.1809C48.6508 12.99 48.6552 12.9807 48.4637 13.5974C48.4297 13.7055 48.4427 13.9064 48.3173 13.9002C48.1203 13.8915 47.9226 13.805 47.7349 13.7284C47.6428 13.6889 47.717 13.5949 47.7349 13.5331ZM45.4132 10.7357C45.5447 10.5268 45.7312 10.7128 45.89 10.7042C46.0135 10.6974 46.1463 10.7209 46.1895 10.9007C46.3816 11.704 46.5861 12.5073 46.788 13.3138C46.8164 13.4281 46.8066 13.4924 46.6645 13.4621C46.5441 13.4367 46.4205 13.4287 46.2989 13.4108C46.1457 13.3885 46.0283 13.3335 46.0296 13.1469C46.0296 12.9133 45.8906 12.8336 45.6763 12.8293C45.563 12.8328 45.45 12.8169 45.3421 12.7823C45.087 12.6828 44.9098 12.7391 44.8116 13.0011C44.769 13.1129 44.6881 13.1512 44.5682 13.1247C44.3897 13.0864 44.2088 13.0629 43.9889 13.027C44.4731 12.2472 44.9394 11.4902 45.4138 10.7376L45.4132 10.7357ZM41.3096 12.6377C41.3664 11.8808 41.4238 11.1244 41.4763 10.3674C41.4844 10.2506 41.5214 10.2148 41.6437 10.2172C42.1724 10.229 42.1718 10.224 42.1588 10.7363C42.1545 10.9001 42.1588 11.0644 42.1588 11.2307H42.1304C42.1156 11.4661 42.1242 11.7059 42.0804 11.9357C42.0322 12.1873 42.1421 12.2336 42.3534 12.2392C42.6091 12.246 42.8635 12.2911 43.1192 12.301C43.4114 12.309 43.2656 12.5129 43.2712 12.634C43.2767 12.7551 43.3404 12.943 43.0859 12.9251C42.5341 12.8839 41.982 12.8445 41.4294 12.8071C41.3151 12.7959 41.3034 12.7298 41.3102 12.6396L41.3096 12.6377ZM39.7778 10.1901C39.8393 10.1989 39.9017 10.1989 39.9631 10.1901C40.1811 10.1592 40.2398 10.2519 40.2361 10.465C40.2237 11.1448 40.225 11.8208 40.2361 12.4981C40.2392 12.7039 40.1922 12.7885 39.9662 12.7842C39.5067 12.7749 39.5061 12.7879 39.5061 12.3312C39.5061 12.0429 39.5061 11.7545 39.5061 11.4661C39.5061 11.1275 39.5203 10.7864 39.5011 10.4496C39.4869 10.229 39.5709 10.1616 39.7784 10.1919L39.7778 10.1901ZM36.6248 10.5126C37.0015 10.216 37.8427 10.2067 38.2306 10.4928C38.2708 10.5225 38.3381 10.5478 38.3097 10.6041C38.2479 10.732 38.1652 10.8513 38.0898 10.9748C37.9663 11.1689 37.8576 10.9816 37.7501 10.9563C37.5796 10.9161 37.4141 10.8581 37.2368 10.8902C37.1436 10.9069 37.0515 10.9483 37.0404 11.0558C37.0275 11.1744 37.1312 11.2183 37.2146 11.2412C37.4221 11.2956 37.6377 11.3209 37.8458 11.374C38.327 11.4976 38.5252 11.7244 38.5178 12.1218C38.5104 12.5191 38.2269 12.8305 37.7909 12.9152C37.6752 12.9331 37.5588 12.9451 37.4419 12.951C37.0898 12.951 36.7711 12.896 36.4765 12.7273C36.3493 12.6544 36.2986 12.6037 36.4055 12.4511C36.563 12.228 36.6779 12.0482 36.9898 12.2657C37.1467 12.377 37.3789 12.3943 37.587 12.3436C37.6846 12.3195 37.8007 12.2923 37.7909 12.1551C37.7828 12.0451 37.6982 12.0099 37.6 11.9883C37.3406 11.9308 37.0806 11.874 36.8243 11.8029C36.6872 11.7721 36.5638 11.6976 36.4727 11.5906C36.3816 11.4836 36.3277 11.35 36.319 11.2097C36.3033 11.077 36.3233 10.9426 36.3771 10.8203C36.4309 10.6981 36.5164 10.5925 36.6248 10.5145V10.5126ZM33.615 10.7913C33.6865 10.7847 33.7575 10.7733 33.8275 10.7573C33.9738 10.7357 33.9955 10.8241 34.0128 10.9427C34.0881 11.4507 34.1789 11.9561 34.2487 12.4647C34.2697 12.6161 34.2888 12.6822 34.4698 12.6402C34.749 12.5747 35.0368 12.5475 35.3209 12.5043C35.6594 12.4524 35.5192 12.7354 35.5766 12.875C35.6421 13.0338 35.5939 13.1061 35.4068 13.129C34.8873 13.1908 34.3704 13.2798 33.8534 13.3644C33.7416 13.383 33.6619 13.4089 33.6391 13.2483C33.5409 12.5574 33.4538 11.8628 33.3161 11.18C33.2543 10.876 33.3556 10.8012 33.615 10.7932V10.7913ZM31.5471 11.282C31.6721 11.2575 31.7958 11.2268 31.9177 11.1899C31.9875 11.1794 32.0023 11.261 32.0233 11.345C32.2045 12.07 32.3869 12.7949 32.5706 13.5195C32.5977 13.6264 32.5804 13.6845 32.4631 13.7266C31.9338 13.9169 31.9072 13.902 31.7837 13.3558C31.6472 12.7669 31.5138 12.1767 31.3439 11.5971C31.2778 11.3703 31.3483 11.3085 31.5478 11.2844L31.5471 11.282ZM28.5207 12.3943C28.9104 11.9833 29.4082 11.869 29.9573 11.9555C30.0877 11.9759 30.1871 12.0488 30.0994 12.1817C30.0117 12.3145 30.15 12.6217 29.8116 12.5617C29.6186 12.5256 29.4195 12.5425 29.2353 12.6105C29.1248 12.6513 29.0111 12.6995 29.0445 12.8423C29.0729 12.9659 29.1902 12.9758 29.2958 12.9696C29.5312 12.9554 29.7665 12.922 30.0018 12.9201C30.3798 12.917 30.612 13.0734 30.7257 13.3799C30.7872 13.5291 30.7984 13.6942 30.7576 13.8504C30.7169 14.0065 30.6263 14.1451 30.4996 14.245C30.0345 14.625 29.5021 14.7394 28.9135 14.5892C28.777 14.554 28.7628 14.512 28.8042 14.3785C28.8833 14.1264 28.9277 13.8903 29.2983 14.0244C29.4682 14.0862 29.664 14.0287 29.8394 13.9626C29.9573 13.9169 30.0864 13.8693 30.0562 13.7105C30.0259 13.5517 29.8863 13.5955 29.7795 13.5869C29.7279 13.5872 29.6763 13.5903 29.625 13.5962C29.4305 13.5962 29.2088 13.658 28.9802 13.6246C28.6918 13.5826 28.4911 13.4503 28.3817 13.1661C28.2693 12.8769 28.3181 12.6118 28.5201 12.3986L28.5207 12.3943ZM25.7957 15.9592L25.8179 15.9357L25.7963 15.9586L25.8222 15.9345L25.7957 15.9592ZM25.7339 16.016C25.6573 16.0649 25.5918 16.1396 25.4868 16.1304C25.5165 16.0945 25.5539 16.0659 25.5963 16.0468C25.6387 16.0278 25.685 16.0187 25.7314 16.0204L25.7339 16.016ZM24.5604 14.7715C24.5981 14.7511 24.6364 14.7326 24.674 14.7097C24.6364 14.7295 24.5981 14.7486 24.5604 14.7715L24.4338 14.8648L24.4017 14.7721L24.4375 14.7159C24.5054 14.6519 24.5829 14.5989 24.6672 14.5589C24.5831 14.599 24.5058 14.6519 24.4381 14.7159L24.5604 14.7715Z" fill="#F7F6FC"/>
<path d="M53.8002 16.2686L53.826 16.2746L53.8194 16.2673L53.7949 16.2627L53.8002 16.2686Z" fill="#F7F6FC"/>
<path d="M55.0658 34.5432C54.6976 34.2743 54.2554 34.1258 53.7996 34.1181C53.5198 34.1181 53.203 34.1026 53.0535 34.3801C52.904 34.6575 53.1017 34.901 53.2635 35.108C53.4253 35.315 53.4284 35.5282 53.3722 35.7711C53.1919 36.5485 52.7855 37.2127 52.3475 37.8616C51.6749 38.8583 50.901 39.7852 50.2908 40.8277C49.8109 41.6453 49.452 42.4999 49.5076 43.378C49.4965 45.1904 50.1938 46.1767 51.8201 46.7384C52.0616 46.8218 52.3093 46.8904 52.5569 46.9546C53.8694 47.2939 55.1356 47.2247 56.3468 46.5548C57.2535 46.0531 57.9755 45.3412 58.6604 44.5854C58.8582 44.3731 58.99 44.1077 59.0397 43.8217C59.0879 43.5257 58.9378 43.3928 58.6475 43.467C58.4288 43.5226 58.2664 43.669 58.128 43.8377C57.86 44.1634 57.6129 44.5063 57.3356 44.8264C56.629 45.636 55.7335 46.0908 54.6656 46.202C54.2246 46.2477 53.9188 46.0271 53.6878 45.6798C53.4686 45.3505 53.4544 45.0168 53.6644 44.6695C54.0096 44.0985 54.3438 43.5207 54.6835 42.9454C55.3703 41.7769 56.0701 40.6158 56.6599 39.3929C57.0682 38.5456 57.222 37.6694 56.8637 36.7703C56.4962 35.8409 55.8755 35.1074 55.0658 34.5432Z" fill="#F7F6FC"/>
<path d="M51.1328 20.2516L51.1438 20.2645L51.1367 20.249L51.1328 20.2516Z" fill="#F7F6FC"/>
<path d="M55.9833 15.5958C55.7134 15.5692 55.6078 15.6193 55.601 15.9184C55.5813 16.7619 55.5201 17.6041 55.488 18.447C55.4793 18.6812 55.4231 18.7764 55.1545 18.7832C53.6555 18.8221 52.2997 19.2775 51.1367 20.2477C51.2059 20.3181 51.2905 20.291 51.3677 20.2767C53.0181 19.9758 54.6776 19.9628 56.3459 20.0846C58.6299 20.2567 60.8867 20.6903 63.072 21.3767C64.6915 21.8803 66.2572 22.5075 67.6024 23.6013C67.6691 23.4122 67.6512 23.2361 67.6586 23.0631C67.6919 22.2597 67.7024 21.4564 67.7636 20.6574C67.7871 20.3484 67.6938 20.1717 67.4548 19.9925C65.6015 18.5882 63.5298 17.4986 61.3228 16.7674C59.5842 16.1983 57.8109 15.7744 55.9833 15.5958ZM57.5657 17.3026C57.5145 17.7617 57.4663 18.2215 57.4237 18.6818C57.4119 18.8116 57.4237 18.9222 57.2279 18.908C57.0475 18.8944 57.0278 18.8042 57.0617 18.6274C57.1044 18.1949 57.1556 17.7246 57.1933 17.2537C57.2075 17.0752 57.2859 17.0375 57.4502 17.0579C57.6411 17.082 57.5781 17.1938 57.5657 17.3026ZM58.6713 18.9092C58.6435 19.0248 58.6058 19.0507 58.4903 19.0489C57.6973 19.0347 57.6757 19.0174 57.7232 18.2412C57.7405 17.9551 57.7702 17.669 57.8035 17.3841C57.8159 17.2779 57.7634 17.1172 57.9752 17.1326C58.1871 17.1481 58.1994 17.2667 58.1605 17.4286C58.1583 17.4535 58.1583 17.4785 58.1605 17.5034C58.1414 17.7154 58.1432 17.9446 58.0988 18.1634C58.0302 18.4791 58.1401 18.6163 58.4551 18.6009C58.6911 18.5891 58.7176 18.7065 58.6713 18.9092ZM60.3389 17.9298C60.3093 18.329 60.2871 18.7288 60.2494 19.1267C60.2414 19.2108 60.271 19.3634 60.1042 19.3399C59.9708 19.3208 59.8485 19.2831 59.8782 19.089C59.9128 18.861 59.9189 18.6287 59.9399 18.3438L59.5502 18.8833L59.2785 18.2116C59.2482 18.5125 59.2303 18.7356 59.2019 18.9574C59.192 19.0371 59.2192 19.1706 59.0654 19.1342C58.9585 19.1088 58.8183 19.1224 58.8387 18.9253C58.8912 18.4359 58.9245 17.9446 58.9622 17.454C58.9678 17.3835 58.9894 17.3359 59.074 17.3551C59.1975 17.3829 59.3452 17.3662 59.3995 17.5343C59.4613 17.7265 59.5348 17.915 59.6064 18.1139C59.7398 18.0212 59.7917 17.8816 59.8566 17.7598C59.9393 17.6047 60.0314 17.5813 60.1963 17.6214C60.4007 17.6733 60.3439 17.8006 60.334 17.9292L60.3389 17.9298ZM60.8213 19.4073C60.8016 19.5235 60.7151 19.4821 60.6539 19.4691C60.565 19.4543 60.4631 19.437 60.4686 19.309C60.4754 19.1966 60.4909 19.0853 60.5063 18.9352C60.5286 18.6262 60.552 18.2802 60.5817 17.9341C60.5878 17.8649 60.5539 17.737 60.6885 17.7691C60.7843 17.792 60.9467 17.7778 60.9405 17.9378C60.9308 18.4298 60.8893 18.9206 60.8164 19.4073H60.8213ZM64.9885 20.65C65.0299 20.2965 64.9984 19.9344 64.9984 19.534C65.2535 19.6106 65.4456 19.6576 65.3956 19.9097C65.3295 20.2403 65.516 20.3676 65.8174 20.443L65.8563 19.99C66.1157 20.0333 66.2331 20.1581 66.2065 20.4257C66.1769 20.721 66.1818 21.0195 66.1577 21.3149C66.1522 21.3804 66.1806 21.5231 66.0669 21.5003C65.9644 21.4811 65.8106 21.4552 65.8026 21.2926C65.7975 21.2099 65.8027 21.1269 65.818 21.0455C65.8736 20.7624 65.6327 20.6976 65.4728 20.6704C65.2757 20.6376 65.3758 20.8613 65.3326 20.967C65.3191 21.0145 65.3115 21.0635 65.3097 21.1128C65.0157 21.072 64.9509 20.9281 64.9836 20.65H64.9885ZM64.0948 19.0594C64.2183 19.0866 64.3598 19.1162 64.4036 19.2744C64.5488 19.804 64.6952 20.3336 64.8514 20.9015C64.6223 20.8397 64.4673 20.7927 64.4024 20.5764C64.3264 20.3225 64.0275 20.2502 63.802 20.4084C63.6816 20.493 63.5927 20.396 63.4969 20.3577C63.3654 20.3052 63.4562 20.2205 63.4858 20.1575C63.6316 19.8522 63.781 19.5488 63.9367 19.2485C63.9694 19.1756 63.9639 19.0328 64.0893 19.0594H64.0948ZM61.7095 18.6466C62.0646 18.1986 62.0609 18.2072 62.5927 18.4149C62.7656 18.4822 62.8157 18.6003 62.8601 18.7541C62.8972 18.8777 62.9509 19.0013 63.0059 19.1459C63.0665 19.0669 63.1204 18.983 63.1671 18.895C63.2641 18.6651 63.4142 18.7356 63.5636 18.8172C63.7736 18.9327 63.5797 19.031 63.5272 19.1002C63.2801 19.4234 63.0664 19.7527 63.1115 20.1871C62.8027 20.1717 62.6922 20.0506 62.7687 19.7546C62.8527 19.432 62.6557 19.1626 62.5581 18.8759C62.5087 18.7306 62.4581 18.5854 62.392 18.3939C62.093 18.8264 61.7181 19.1854 61.8262 19.7533C61.4803 19.7533 61.3741 19.6131 61.4779 19.3146C61.552 19.1014 61.4402 18.9135 61.376 18.7214C61.2895 18.4625 61.1944 18.2066 61.0999 17.9403C61.4093 17.9675 61.4093 17.9675 61.7039 18.6466H61.7095Z" fill="#F7F6FC"/>
<path d="M27.6836 20.2112C27.5768 19.9999 27.4088 19.8954 27.2513 19.7898C26.15 19.0553 24.8547 18.6663 23.5312 18.6725C23.2675 18.6725 23.2076 18.5885 23.2051 18.3419C23.1971 17.4978 23.1619 16.6543 23.1495 15.8083C23.1495 15.623 23.1007 15.547 22.9062 15.5661C22.6301 15.5933 22.3503 15.5896 22.0755 15.6193C20.6728 15.7713 19.309 16.1013 17.9626 16.5128C15.541 17.2549 13.2725 18.4266 11.2655 19.9721C11.1025 20.0956 11.0339 20.2236 11.0543 20.4368C11.0913 20.8254 11.0876 21.2178 11.1062 21.6108C11.1358 22.2331 11.1679 22.8554 11.2037 23.5265C11.8381 22.9864 12.5008 22.5996 13.1963 22.2652C14.7113 21.5361 16.3098 21.0572 17.9422 20.6808C19.818 20.2483 21.7148 19.964 23.6418 19.9127C24.9895 19.8726 26.331 19.9356 27.6836 20.2112ZM13.1295 21.2154C13.1209 21.3977 12.9233 21.4007 12.7664 21.4625V20.9886C12.4761 21.0819 12.2303 21.1567 12.2723 21.5342C12.3001 21.7666 12.2723 21.7703 11.9091 21.9081C11.9091 21.4897 11.9029 21.0881 11.9128 20.6864C11.9159 20.5548 11.935 20.5548 12.2451 20.4157C12.3211 20.5393 12.2451 20.6765 12.297 20.7989C12.6867 20.7204 12.7701 20.6493 12.7497 20.2823C12.7349 20.0153 12.9115 19.9677 13.1339 19.8584C13.137 20.3305 13.1512 20.7741 13.1295 21.2154ZM14.6434 20.5974C14.5402 20.6283 14.4161 20.8316 14.2907 20.5888C14.2289 20.4738 13.809 20.6506 13.7182 20.8217C13.5767 21.0874 13.5767 21.0874 13.2741 21.211C13.4544 20.6333 13.6261 20.0987 13.7867 19.5624C13.8398 19.3838 13.9868 19.3183 14.1277 19.2948C14.2685 19.2713 14.2672 19.4443 14.3129 19.5383C14.4365 19.7978 14.5551 20.0592 14.657 20.3268C14.6848 20.4089 14.8373 20.5412 14.6434 20.5993V20.5974ZM15.6193 20.2174C15.3753 20.2792 15.1579 20.425 14.8781 20.4714C14.8781 19.9844 14.8781 19.5148 14.8781 19.0458C14.8781 18.8103 15.0825 18.8381 15.2487 18.7077C15.2487 19.0872 15.2573 19.4017 15.2487 19.715C15.2413 19.9189 15.3154 19.943 15.4821 19.8676C15.6106 19.8095 15.7453 19.7657 15.8824 19.7138C15.9701 19.9894 15.9028 20.15 15.6193 20.2192V20.2174ZM17.3184 19.634C17.2245 19.6501 17.1288 19.7706 17.0225 19.6254C16.8867 19.44 16.5216 19.4882 16.4179 19.694C16.274 19.9789 16.274 19.9789 15.9645 20.0647C16.1443 19.4431 16.3129 18.8641 16.4778 18.2845C16.526 18.1164 16.6631 18.0682 16.8057 18.049C16.9565 18.0286 16.9355 18.18 16.967 18.2647C17.1109 18.6484 17.2467 19.0353 17.3876 19.4196C17.4215 19.5166 17.4481 19.6136 17.3184 19.6359V19.634ZM18.8773 18.4513C18.8662 18.6367 18.7316 18.8066 18.8619 19.0074C18.881 19.0371 18.8557 19.3448 18.6025 19.2219C18.5444 19.1941 18.5104 19.2423 18.4703 19.2719C18.2553 19.4307 18.0318 19.5401 17.7649 19.3906C17.563 19.2775 17.4561 19.0359 17.4561 18.5353C17.4697 18.352 17.5245 18.1741 17.6163 18.0149C17.7082 17.8557 17.8348 17.7193 17.9867 17.6158C18.3313 17.3687 18.6661 17.4848 18.8199 17.8778C18.894 18.0676 18.889 18.2603 18.8773 18.4538V18.4513ZM20.2843 18.9648C20.1904 18.9728 20.0768 19.0266 20.0304 18.8771C20.0008 18.78 20.0076 18.6206 19.8328 18.6799C19.6747 18.7337 19.4394 18.6633 19.4042 18.9351C19.393 19.0223 19.3844 19.1298 19.2652 19.1502C19.1868 19.1632 19.0972 19.2083 19.0299 19.1502C18.9625 19.0921 19.0194 19.0198 19.0385 18.9518C19.1898 18.4087 19.3529 17.868 19.4807 17.3192C19.524 17.1338 19.637 17.0949 19.7747 17.0646C19.9779 17.0201 19.9464 17.2179 19.9755 17.3075C20.1379 17.8018 20.2781 18.3073 20.4264 18.8085C20.4486 18.9271 20.3708 18.9592 20.2843 18.9667V18.9648ZM21.6104 18.7912C21.4411 18.7992 21.4251 18.7108 21.4319 18.5829C21.4372 18.4903 21.4372 18.3975 21.4319 18.3048C21.4238 18.1862 21.4936 18.0268 21.2528 18.0435C21.0601 18.057 20.9334 18.0861 20.9631 18.3209C20.9785 18.4445 20.9557 18.5681 20.9668 18.6917C20.9841 18.8826 20.847 18.8727 20.7278 18.8913C20.5641 18.9166 20.6042 18.7905 20.6042 18.7108C20.6011 18.1652 20.6135 17.6195 20.5974 17.0739C20.5919 16.8755 20.7092 16.8527 20.8402 16.8378C21.0224 16.8174 20.9526 16.967 20.9637 17.0535C20.9748 17.14 20.9581 17.2191 20.9686 17.3007C20.9822 17.4033 20.8933 17.5732 21.1187 17.5528C21.2824 17.538 21.4634 17.5528 21.4362 17.2957C21.4226 17.1635 21.4399 17.0282 21.4362 16.8947C21.4276 16.7124 21.5505 16.7044 21.6795 16.6957C21.8377 16.6846 21.8 16.8026 21.8031 16.8854C21.8068 17.1734 21.8031 17.462 21.8031 17.7505C21.8031 18.0286 21.7981 18.3067 21.8031 18.5842C21.8018 18.7238 21.7605 18.7856 21.6104 18.793V18.7912Z" fill="#F7F6FC"/>
<path d="M60.4115 60.5206C60.2428 60.4032 60.0662 60.2977 59.8828 60.2048C58.881 59.716 57.8125 59.6097 56.7248 59.7247C55.1618 59.8968 53.6295 60.2814 52.1704 60.8679C50.7498 61.4296 49.4527 62.1736 48.4565 63.3724C48.1477 63.7432 47.6943 63.9001 47.2348 64.0237C47.3603 63.8881 47.4978 63.764 47.6455 63.6529C47.9815 63.3823 48.3521 63.1438 48.6288 62.8125C48.9431 62.4355 49.312 62.1077 49.7233 61.8399C50.7689 61.1564 51.8955 60.638 53.0672 60.2159C53.6644 60.0027 54.2895 59.8575 54.8305 59.5084C55.2073 59.2612 55.4859 58.9485 55.5322 58.4764C55.5705 58.0815 55.3858 57.827 55.0041 57.7275C54.6724 57.6409 54.35 57.7034 54.0282 57.7707C53.9584 57.7855 53.8127 57.7423 53.8627 57.9122C53.9004 58.042 53.9862 58.0581 54.0999 58.021C54.3469 57.94 54.6088 57.9512 54.8645 57.9728C55.1202 57.9944 55.2703 58.1316 55.2666 58.4165C55.2623 58.7359 55.0961 58.9596 54.8707 59.15C54.5507 59.4194 54.1709 59.5825 53.7787 59.7061C52.0561 60.2518 50.4218 60.9748 48.9611 62.0586H48.9574C48.879 61.982 48.9216 61.8869 48.9413 61.8071C49.042 61.3919 48.8685 61.0953 48.5553 60.8462C48.2978 61.1045 48.123 61.4333 47.7666 61.5797C47.6573 61.6248 47.7203 61.7169 47.7826 61.7787C47.9216 61.9159 48.0692 62.045 48.2002 62.1896C48.4472 62.4615 48.4182 62.6655 48.1137 62.9015C48.0433 62.485 47.7783 62.3695 47.4189 62.5993C47.0934 62.8076 47.0087 63.0022 47.1131 63.3841C47.1489 63.5158 47.1656 63.606 47.0458 63.7055C46.6894 64.0008 46.3547 64.3234 45.9896 64.6064C45.6882 64.84 45.3596 65.0427 44.91 65.1181L45.0953 64.8839C45.4856 64.3926 45.8785 63.9026 46.2175 63.3736C46.3843 63.1135 46.5344 62.8428 46.548 62.5221C46.5572 62.2959 46.535 62.063 46.2793 61.9956C46.0323 61.9338 45.8439 62.0685 45.7117 62.2743C45.6684 62.3441 45.6362 62.4202 45.616 62.4999C45.5128 62.8861 45.4276 63.2772 45.3121 63.6597C45.0514 64.5249 44.6487 65.2732 43.7241 65.6056C42.9052 65.9057 42.0592 66.1261 41.198 66.2638C40.7357 66.3344 40.2699 66.3804 39.8027 66.4016C39.875 66.6092 40.0127 66.5696 40.1282 66.5653C40.5834 66.5499 41.0448 66.4689 41.4413 66.8051C41.5309 66.8811 41.6705 66.886 41.7965 66.8848C42.2696 66.8811 42.7427 66.8792 43.217 66.8811C43.2949 66.8811 43.4023 66.8391 43.4462 66.92C43.6062 67.2142 43.8433 67.0751 44.0873 67.0665C43.9502 66.8644 43.7235 66.7921 43.5987 66.569C44.0817 66.6308 44.5351 66.6537 44.9804 66.569C45.4158 66.4844 45.8538 66.3744 46.0848 65.9338C46.1638 65.783 46.1891 65.6106 46.0051 65.5012C45.8346 65.3993 45.7284 65.5216 45.6493 65.6415C45.1484 66.3991 44.4072 66.4139 43.6253 66.3058C43.5073 66.2891 43.3455 66.2495 43.3486 66.108C43.3486 66.0067 43.5117 66.0191 43.6043 65.9844C44.708 65.6032 45.8334 65.2855 46.8457 64.667C47.4485 64.2962 48.1051 64.0219 48.753 63.7351C48.907 63.6635 49.0739 63.6236 49.2437 63.6179C49.4135 63.6121 49.5827 63.6407 49.7412 63.7018C50.2655 63.8862 50.7497 64.1691 51.1679 64.5354C51.3705 64.7133 51.5805 64.8802 51.8622 64.9061C52.0067 64.9197 52.1741 64.9364 52.2618 64.8054C52.3495 64.6744 52.2951 64.51 52.2173 64.3679C52.0011 63.9724 51.6398 63.7944 51.2217 63.7153C50.7436 63.6245 50.2619 63.551 49.7282 63.4608C50.4144 63.1116 51.045 62.959 51.6874 63.4218C51.8323 63.5204 51.9962 63.5877 52.1685 63.6196C52.4594 63.6814 52.746 63.7061 52.9714 63.4663C53.1969 63.2266 52.9943 63.0165 52.9016 62.802C52.9906 62.76 53.0524 62.7946 53.116 62.828C53.4866 63.0251 53.4705 63.3687 53.4569 63.7153C53.452 63.8525 53.326 64.0385 53.4612 64.1152C53.5965 64.1918 53.7768 64.0917 53.9313 64.0317C54.038 63.9912 54.1267 63.9139 54.1814 63.8136C54.2395 63.7104 54.2784 63.7178 54.358 63.8019C54.5057 63.9642 54.6773 64.103 54.867 64.2134C55.0257 63.5337 54.7008 63.0609 54.2679 62.6333C54.4414 62.5097 54.6385 62.6173 54.8157 62.5097C53.9578 62.1915 53.0981 62.1668 52.2334 62.2663C51.0673 62.4004 49.9919 62.8354 48.9339 63.3168C48.8332 63.3625 48.7394 63.4404 48.614 63.3903C49.3737 62.6228 50.2334 62.0191 51.2698 61.6774C52.1809 61.3777 53.0727 61.039 54.043 61.466C54.3587 61.6051 54.7224 61.8312 55.0251 61.3214C55.1109 61.8776 55.2876 62.2978 55.7045 62.6883C55.6366 62.2502 55.6742 61.9196 56.0288 61.7076C56.1121 61.6576 56.0726 61.5396 56.0769 61.4481C56.0831 61.3288 55.9787 61.2244 56.0275 61.0916C56.4302 61.1194 56.8274 61.2769 57.2548 61.0514C57.0448 60.9816 56.8786 60.9315 56.7174 60.8709C56.5748 60.8172 56.5179 60.7053 56.5284 60.5533C56.5402 60.3791 56.6655 60.3834 56.7915 60.3679C57.479 60.2802 58.1695 60.2901 58.8569 60.3333C59.5895 60.3797 60.0823 60.7746 60.2059 61.3523C59.3776 61.2207 58.928 61.6743 58.915 62.3528C58.9051 62.8471 59.1837 63.2754 59.6426 63.4107C60.1849 63.5701 60.7037 63.4027 60.9217 62.954C61.2688 62.2601 61.3022 61.1218 60.4115 60.5206Z" fill="#F7F6FC"/>
<path d="M42.4238 67.7888C42.0878 67.5416 41.6122 67.5416 41.3047 67.7888C41.0811 67.968 41.0267 68.3239 41.1811 68.6669C41.2262 68.767 41.2509 68.9462 41.4208 68.8714C41.574 68.8041 41.4665 68.6786 41.4288 68.5798C41.3497 68.3721 41.2707 68.154 41.4869 67.989C41.724 67.808 41.9859 67.8203 42.2348 67.9791C42.501 68.1478 42.69 68.5489 42.6289 68.7961C42.5412 69.1495 42.1169 69.511 41.7642 69.5345C41.0681 69.5802 40.251 69.1069 39.9341 68.484C39.9184 68.4587 39.9112 68.429 39.9137 68.3992C39.9161 68.3695 39.9281 68.3414 39.9477 68.319C40.2738 67.8333 40.1688 67.3649 39.894 66.902C39.747 66.6549 39.6148 66.4009 39.5852 66.1049C39.5691 65.9411 39.6216 65.6662 39.4233 65.6674C39.238 65.6674 39.2677 65.9442 39.2652 66.1098C39.2652 66.323 39.1837 66.3935 38.9669 66.3805C37.8113 66.3113 36.6989 66.0511 35.5958 65.7063C34.7163 65.4313 34.1586 64.8641 33.8571 64.0181C33.7682 63.7709 33.7114 63.5064 33.636 63.2506C33.5409 62.9268 33.5205 62.5795 33.3439 62.2823C33.2117 62.0598 33.0116 61.9233 32.7534 61.9968C32.5125 62.066 32.5064 62.294 32.5064 62.5072C32.5144 62.7235 32.5766 62.9343 32.6873 63.1202C32.9243 63.5298 33.1927 63.9203 33.4903 64.2881C33.6879 64.5446 33.8868 64.7992 34.103 65.0779C33.9177 65.0995 33.804 65.0284 33.6854 64.9759C33.1703 64.7467 32.759 64.3709 32.3421 64.0064C32.0796 63.7777 31.7745 63.5806 31.9758 63.1554C31.9868 63.115 31.9868 63.0723 31.9758 63.0319C31.9412 62.7927 31.5941 62.4887 31.3421 62.4807C31.0599 62.4714 30.9493 62.6333 30.9715 62.9132C30.6362 62.6802 30.5972 62.4918 30.8245 62.2205C30.9347 62.0982 31.0529 61.9834 31.1784 61.8769C31.3341 61.7354 31.4453 61.6118 31.1488 61.4987C30.9931 61.4369 30.8919 61.2961 30.7832 61.1731C30.4743 60.8209 30.3341 60.8425 30.1352 61.2806C30.0857 61.3823 30.0722 61.4978 30.097 61.6081C30.1272 61.749 30.118 61.8992 30.1285 62.0864C28.7659 61.0581 27.2873 60.3809 25.7395 59.8562C25.2145 59.6789 24.6809 59.5244 24.23 59.1839C24.0107 59.0183 23.8489 58.8131 23.7976 58.5314C23.7359 58.194 23.8853 57.9907 24.2269 57.9678C24.474 57.9511 24.721 57.9431 24.9607 58.0185C25.0539 58.0475 25.1429 58.0605 25.1811 57.932C25.2225 57.7923 25.133 57.7799 25.036 57.7657C24.8427 57.7367 24.65 57.6792 24.4573 57.6811C24.1386 57.6848 23.8001 57.6996 23.6117 58.0179C23.4165 58.3472 23.5135 58.6723 23.6895 58.98C23.8594 59.2772 24.1324 59.4614 24.4221 59.6227C24.9094 59.8946 25.4548 60.0138 25.9705 60.2116C27.4769 60.79 28.9833 61.3819 30.1705 62.5344C30.5077 62.8625 30.8356 63.1969 31.205 63.4885L31.5676 63.7752L31.9054 64.0416C31.3236 63.8686 30.8042 63.6387 30.4002 63.1554C29.9632 62.629 29.4308 62.19 28.8308 61.8615V61.8615L28.711 61.7818L28.7208 61.7892L28.6424 61.7521L28.5275 61.6736C28.4783 61.6135 28.409 61.5731 28.3324 61.5599C28.329 61.5532 28.3233 61.5481 28.3163 61.5454C28.3093 61.5428 28.3016 61.5429 28.2947 61.5457L28.2107 61.4919L28.0476 61.3968L27.8098 61.2732H27.8055L27.7153 61.2417C27.6715 61.1749 27.6023 61.1799 27.5356 61.1799C27.5159 61.146 27.4881 61.1177 27.4546 61.0974C27.4212 61.0771 27.3832 61.0655 27.3441 61.0637V61.0637L27.1681 60.992C27.0705 60.9302 26.9742 60.8647 26.85 60.8796C26.8319 60.8747 26.8132 60.8718 26.7944 60.8709L26.7271 60.819C26.7215 60.812 26.7138 60.8069 26.7052 60.8046C26.6965 60.8022 26.6873 60.8027 26.6789 60.806C26.5862 60.7319 26.4702 60.6934 26.3516 60.6973C26.3337 60.6912 26.3149 60.6881 26.296 60.688L26.2299 60.6386L26.1126 60.6256C26.1084 60.6126 26.1017 60.6007 26.0927 60.5904C26.0838 60.5802 26.0728 60.5719 26.0605 60.5661C26.0483 60.5603 26.0349 60.5571 26.0213 60.5567C26.0077 60.5563 25.9942 60.5587 25.9816 60.5638C25.9115 60.516 25.827 60.4941 25.7426 60.502C25.5568 60.3824 25.3409 60.3181 25.12 60.3166C25.002 60.1986 24.8408 60.214 24.6963 60.1807C24.6801 60.1622 24.6589 60.1487 24.6352 60.1419C24.6116 60.1351 24.5865 60.1353 24.5629 60.1423L24.4233 60.1195C24.2516 60.0175 24.0527 60.0101 23.8674 59.9737C22.7717 59.7568 21.6723 59.5763 20.5513 59.7765C20.4976 59.7592 20.4624 59.7932 20.4278 59.8223C20.2548 59.8037 20.1011 59.8655 19.9485 59.9335C19.8539 59.9293 19.7609 59.9594 19.6866 60.0181C19.4813 60.0517 19.2864 60.1316 19.1165 60.2517C19.0684 60.2517 19.022 60.2517 19.001 60.3092C18.8627 60.3364 18.7657 60.4291 18.6694 60.5211L18.6496 60.5335C18.3761 60.6975 18.1667 60.9499 18.056 61.2491L18.014 61.3683C17.8244 61.8541 17.8843 62.3286 18.0758 62.7983C18.0824 62.8618 18.1024 62.9231 18.1343 62.9784C18.1662 63.0336 18.2094 63.0816 18.2611 63.119C18.2608 63.1288 18.2638 63.1384 18.2696 63.1462C18.2754 63.1541 18.2838 63.1597 18.2932 63.1622C18.3481 63.2356 18.4175 63.2967 18.4971 63.3419C18.5767 63.3871 18.6648 63.4154 18.7558 63.4249C18.7867 63.4867 18.8392 63.4626 18.8868 63.4582C19.1554 63.5015 19.4087 63.4681 19.6329 63.3C19.6575 63.2983 19.6812 63.2901 19.7016 63.2762C19.722 63.2623 19.7384 63.2432 19.749 63.221C20.0578 62.9867 20.1634 62.6747 20.1128 62.2996L20.1066 62.176C20.0844 61.9047 19.9732 61.7138 19.736 61.5377C19.4396 61.3164 19.1468 61.3177 18.8232 61.3683C18.8178 61.3494 18.8133 61.33 18.8096 61.3103L18.8306 61.1916L18.8818 61.1249C18.8852 61.1234 18.8882 61.1212 18.8906 61.1185C18.8931 61.1157 18.895 61.1125 18.8961 61.109C18.8973 61.1056 18.8977 61.1019 18.8974 61.0982C18.897 61.0946 18.896 61.091 18.8942 61.0878L19.0863 60.8221L19.1999 60.7065C19.4704 60.4915 19.7929 60.4013 20.1202 60.3228L20.2437 60.3148L20.6143 60.3055H21.2357L21.9768 60.3222C22.0769 60.3617 22.1769 60.3988 22.2856 60.3679L22.4092 60.3772C22.4765 60.3969 22.5049 60.4556 22.5376 60.5094L22.4697 60.8184L22.3462 60.8901C22.1757 60.9519 21.9756 60.9438 21.8088 61.0822C22.1615 61.2411 22.4956 61.1811 22.8242 61.1193C23.0095 61.0847 23.0478 61.1428 23.0095 61.3047C22.978 61.4413 22.9101 61.5809 23.0287 61.7107C23.0283 61.7146 23.0288 61.7186 23.0301 61.7223C23.0314 61.726 23.0335 61.7294 23.0363 61.7323C23.0391 61.7351 23.0424 61.7373 23.0461 61.7387C23.0498 61.7401 23.0538 61.7406 23.0577 61.7404L23.3844 62.0821L23.3993 62.1772C23.3776 62.3262 23.3375 62.4739 23.3659 62.6456C23.558 62.5505 23.6222 62.3614 23.7365 62.2168L23.7445 62.2032C23.8575 62.0246 23.952 61.8405 23.9483 61.6211L24.0144 61.3782C24.4468 61.7163 24.5413 61.7224 25.0064 61.44L25.1237 61.4345C25.2188 61.4573 25.2886 61.3931 25.3708 61.3646L25.6796 61.3028L26.1737 61.2411L26.0761 61.2126L26.1737 61.2411L26.359 61.2448L27.2237 61.4956L27.2453 61.5099H27.2706C27.2862 61.5306 27.3077 61.5462 27.3322 61.5546C27.3568 61.563 27.3833 61.5638 27.4084 61.5568C27.4228 61.5678 27.4409 61.5729 27.459 61.571C27.5053 61.6563 27.5906 61.626 27.661 61.6384H27.6739C27.8214 61.7223 27.9816 61.7812 28.1483 61.8127C28.161 61.833 28.1797 61.8489 28.2018 61.8581C28.224 61.8673 28.2485 61.8694 28.2718 61.8639L28.2953 61.8775H28.3219C28.3924 61.9456 28.4847 61.9866 28.5825 61.9931H28.5862C28.5972 62.0144 28.6145 62.0317 28.6357 62.0428C28.6569 62.0538 28.6811 62.0581 28.7048 62.0549L28.7215 62.0703H28.7437C29.3801 62.4567 29.9633 62.9245 30.4787 63.4619C28.4855 62.5573 26.4782 61.7873 24.2479 62.535C24.4227 62.6005 24.6259 62.5264 24.7988 62.6444C24.3486 63.0819 24.0218 63.5516 24.167 64.2313C24.427 64.0991 24.5993 63.9007 24.805 63.7178C24.9366 63.9742 25.1435 64.0799 25.4016 64.1287C25.5869 64.1633 25.6716 64.1547 25.6308 63.9285C25.5884 63.7157 25.584 63.4971 25.6178 63.2827C25.6709 62.9855 25.8519 62.8304 26.1953 62.7723C26.0551 63.0121 25.8686 63.2092 26.0594 63.4484C26.27 63.7122 26.561 63.6955 26.8519 63.6412C27.0643 63.6013 27.2659 63.5171 27.4436 63.394C28.0754 62.9614 28.6788 63.161 29.3088 63.4558C29.1853 63.5423 29.0772 63.5225 28.9778 63.5361C28.4997 63.6016 28.0204 63.6597 27.5572 63.8024C27.383 63.8509 27.2225 63.9395 27.0886 64.0611C26.9546 64.1826 26.851 64.3338 26.7858 64.5026C26.6826 64.7609 26.7765 64.8962 27.052 64.9191C27.3515 64.9444 27.5899 64.8054 27.8012 64.6163C28.1777 64.2801 28.6048 64.0052 29.0667 63.8018C29.5201 63.6004 29.9685 63.5435 30.4255 63.8018C30.6219 63.9118 30.835 63.9915 31.0432 64.0855C32.1512 64.5934 33.1685 65.2942 34.3562 65.6353C34.8219 65.7687 35.2765 65.9442 35.7428 66.0981C35.7138 66.1522 35.6734 66.1993 35.6245 66.2363C35.5756 66.2734 35.5192 66.2993 35.4593 66.3125C35.0945 66.4174 34.7069 66.4118 34.3453 66.2965C33.9837 66.1813 33.6642 65.9615 33.4273 65.6649C33.3334 65.5413 33.2364 65.3955 33.0499 65.5067C32.8634 65.618 32.8986 65.7805 32.9696 65.9393C33.0202 66.0528 33.1004 66.1505 33.2018 66.2223C33.4706 66.4123 33.7808 66.5354 34.1067 66.5813C34.5427 66.6512 34.98 66.6221 35.4871 66.5881L34.9473 67.0732C35.1789 67.1004 35.4136 67.1906 35.5205 67.0429C35.6582 66.8526 35.8114 66.8885 35.9757 66.8885C36.2635 66.8885 36.5519 66.907 36.8404 66.9045C37.1492 66.9045 37.4901 66.9589 37.7359 66.755C38.1763 66.3885 38.6439 66.6382 39.1102 66.5752C39.105 66.6115 39.0972 66.6475 39.0867 66.6827C39.0618 66.739 39.0338 66.7939 39.0027 66.8471C38.7038 67.3315 38.563 67.824 38.9212 68.3431C38.9366 68.3625 38.9458 68.386 38.9477 68.4107C38.9496 68.4354 38.944 68.46 38.9317 68.4815C38.6507 69.0995 37.8094 69.6056 37.1171 69.5363C36.7465 69.4993 36.4766 69.2725 36.3141 68.94C36.164 68.6379 36.2937 68.3777 36.479 68.1454C36.7008 67.8673 37.0639 67.7863 37.3345 67.9476C37.6526 68.1367 37.5426 68.395 37.4308 68.6484C37.3919 68.7367 37.3518 68.8337 37.4685 68.885C37.5852 68.9363 37.6235 68.8337 37.6692 68.7528C37.8385 68.4531 37.8385 68.0854 37.6692 67.8815C37.4648 67.638 37.0658 67.5422 36.736 67.6578C36.2567 67.8259 35.9232 68.3709 36.0047 68.8523C36.0825 69.3133 36.652 69.7841 37.1362 69.7965C37.5562 69.807 37.9422 69.6729 38.3814 69.4875C38.23 69.9664 38.4295 70.3088 38.6902 70.6252C38.9508 70.9416 39.2461 71.2616 39.2671 71.7183C39.2668 71.7392 39.2709 71.76 39.2792 71.7792C39.2875 71.7984 39.2997 71.8156 39.3151 71.8298C39.3305 71.844 39.3487 71.8547 39.3685 71.8614C39.3883 71.8681 39.4093 71.8705 39.4301 71.8685C39.5333 71.8685 39.6228 71.8129 39.6278 71.7097C39.6519 71.24 39.9687 70.9335 40.2238 70.5893C40.448 70.2871 40.632 69.9677 40.5326 69.5654L40.582 69.5209C40.9668 69.6661 41.3504 69.8113 41.7735 69.7953C42.2107 69.7786 42.7259 69.3911 42.8642 68.9635C42.9803 68.5618 42.7993 68.0625 42.4238 67.7888ZM39.4184 66.6994C40.0082 67.6263 40.0064 67.8735 39.4227 68.4766C38.8607 67.8809 38.8594 67.685 39.4184 66.6981V66.6994ZM40.1169 70.1938C39.9039 70.4942 39.6846 70.7883 39.4425 71.1146C39.1899 70.7803 38.9416 70.4639 38.7087 70.137C38.6584 70.0662 38.6256 69.9845 38.613 69.8985C38.6005 69.8126 38.6085 69.7249 38.6365 69.6426C38.7384 69.2848 38.9132 68.9703 39.1127 68.6539C39.2479 68.7584 39.2485 68.9011 39.3029 69.0179C39.3294 69.0741 39.3535 69.1415 39.4233 69.1415C39.4931 69.1415 39.5259 69.0729 39.5469 69.021C39.5975 68.8974 39.6086 68.7608 39.726 68.6558C39.9453 68.9784 40.1143 69.3327 40.2269 69.7063C40.2862 69.8849 40.2201 70.0474 40.1169 70.1926V70.1938Z" fill="#F7F6FC"/>
<path d="M36.6588 61.6451C37.1597 63.1702 38.1992 64.2349 39.5389 65.0506C39.5826 65.0841 39.6367 65.1012 39.6918 65.0989C39.7469 65.0967 39.7994 65.0752 39.8403 65.0383C40.125 64.8368 40.4289 64.6595 40.7 64.4407C41.952 63.4335 42.7697 62.1753 42.9112 60.5415C42.9532 60.3172 42.9575 60.1485 42.6573 60.0947C42.4381 60.0551 42.2818 59.8543 42.2522 59.6312C42.2275 59.4459 42.1286 59.3698 41.9884 59.2951C41.3881 58.9694 40.7371 58.8409 40.0645 58.8075C39.138 58.7618 38.2375 58.8471 37.3981 59.2815C37.248 59.3593 37.1375 59.4477 37.1029 59.6393C37.0584 59.8865 36.8892 60.0817 36.6384 60.1182C36.4099 60.1515 36.405 60.2751 36.426 60.437C36.4778 60.8449 36.5297 61.2515 36.6588 61.6451ZM38.6192 60.4204V60.4253C38.7427 60.0867 39.046 60.146 39.3165 60.1219C39.251 59.9365 39.0775 60.0496 38.9626 59.9717C39.1053 59.7863 39.2671 59.7863 39.44 59.905C39.5321 59.9668 39.6099 60.049 39.6432 59.8623C39.6432 59.8457 39.6655 59.8315 39.6772 59.8166C39.8582 60.0959 40.0478 59.7474 40.2331 59.8228C40.3109 59.8537 40.3838 59.8797 40.4283 59.9779C40.3084 60.0329 40.1355 59.9229 40.049 60.1145C40.3152 60.1522 40.6426 60.0799 40.7902 60.5025C40.6012 60.4 40.4981 60.2479 40.3103 60.3586C40.5648 60.5804 40.8254 60.7998 40.7921 61.2058C40.5802 60.9623 40.5376 60.9481 40.5092 61.0902C40.4869 61.2039 40.5215 61.3281 40.4542 61.461C40.2881 61.2484 40.3257 60.9716 40.1454 60.7967L40.0898 60.7275C40.0682 60.717 40.0354 60.6916 40.028 60.6984C39.9916 60.7262 40.0132 60.7602 40.0324 60.7899L40.0799 60.8467C40.1595 61.1124 40.1395 61.398 40.0237 61.6501C39.9712 61.6964 39.9619 61.6896 39.9527 61.66C39.9175 61.5623 39.9768 61.3745 39.8292 61.3887C39.6815 61.4029 39.7643 61.5784 39.7674 61.6748C39.7952 62.4163 39.8329 63.1634 39.8761 63.9074C39.8823 64.0143 39.9329 64.1188 39.9681 64.2411H39.4295C39.6402 63.3982 39.5623 62.5331 39.6247 61.6785C39.6321 61.5809 39.6957 61.3973 39.5592 61.3899C39.374 61.3794 39.4808 61.5753 39.4437 61.6791C39.437 61.6983 39.4326 61.718 39.4271 61.7378C39.2208 61.4968 39.1979 61.1854 39.3653 60.6762C39.1918 60.7559 39.146 60.9085 39.0991 61.0327C39.0485 61.1668 39.1034 61.3417 38.9206 61.4332C38.8335 61.1675 38.9367 60.9425 39.0639 60.7225C39.0812 60.6916 39.1257 60.6607 39.0756 60.6286L39.0083 60.6799C38.823 60.8035 38.7829 61.0358 38.6297 61.186C38.5414 60.864 38.5679 60.8183 39.0664 60.366C38.8903 60.188 38.7767 60.492 38.6192 60.4204Z" fill="#F7F6FC"/>
<path d="M58.4685 26.8808C58.1896 26.8716 57.9113 26.912 57.6465 27.0001C56.3655 27.3776 55.9251 28.5937 56.6675 29.6949C57.3623 30.725 58.7922 31.2738 60.0355 30.9877C61.516 30.6503 61.999 29.2123 61.0188 28.0549C60.3542 27.267 59.4778 26.9228 58.4685 26.8808Z" fill="#F7F6FC"/>
<path d="M18.3325 56.0928L19.0489 54.412L19.6937 56.0737C20.026 55.3878 20.2824 54.7105 20.5381 54.0345C20.6221 53.8114 20.6746 53.571 20.9482 53.4073H20.2033C20.3775 53.5012 20.543 53.5556 20.4806 53.7335C20.3237 54.1785 20.1564 54.6191 19.9723 55.1171C19.7963 54.6537 19.6499 54.2594 19.4961 53.8682C19.4201 53.6748 19.3343 53.4888 19.6369 53.4233H18.443C19.0909 53.8658 19.0273 54.3187 18.5381 55.1251C18.364 54.687 18.1997 54.26 18.0224 53.838C17.9477 53.66 17.9495 53.5179 18.2275 53.398H16.3857C16.5339 53.508 16.642 53.6001 16.5611 53.8034C16.3962 54.2199 16.2467 54.6431 16.0719 55.1159C15.9014 54.6685 15.7544 54.2755 15.6025 53.8849C15.5247 53.6853 15.4246 53.4851 15.7933 53.4196C15.4123 53.3974 15.075 53.3974 14.7378 53.398C14.6896 53.398 14.6421 53.4023 14.5778 53.406C15.1794 53.9226 15.1337 54.2829 14.6396 55.1363C14.4629 54.687 14.2987 54.2452 14.1146 53.8114C14.038 53.6303 14.0714 53.5092 14.2949 53.4171H13.1035C13.3567 53.5333 13.4123 53.6965 13.4778 53.8571C13.7471 54.534 14.0174 55.2104 14.2888 55.8865C14.3172 55.9575 14.3264 56.0434 14.4444 56.0681L15.1461 54.4102L15.818 56.1528C15.8798 56.0187 15.9033 55.9754 15.9206 55.9303C16.1899 55.2209 16.4604 54.5091 16.7235 53.8009C16.7853 53.6396 16.8526 53.461 17.0323 53.4561C17.2121 53.4511 17.2856 53.6285 17.3479 53.7854C17.5888 54.396 17.8297 55.0071 18.0811 55.6133C18.1453 55.7641 18.1682 55.9439 18.3325 56.0928Z" fill="#F7F6FC"/>
<path d="M51.8594 17.3772H51.8653V17.3712L51.8594 17.3772Z" fill="#F7F6FC"/>
<path d="M51.916 17.3153L51.9294 17.3198C51.9294 17.3153 51.9294 17.3118 51.9294 17.3064L51.916 17.3153Z" fill="#F7F6FC"/>
<path d="M51.7363 17.4394L51.7423 17.4304L51.7363 17.4394Z" fill="#F7F6FC"/>
<path d="M51.2646 18.2159C51.246 18.2376 51.2293 18.2608 51.2148 18.2854C51.2332 18.2854 51.2509 18.2782 51.2686 18.2736C51.2702 18.2543 51.2689 18.2349 51.2646 18.2159V18.2159Z" fill="#F7F6FC"/>
<path d="M51.3412 19.28C51.1022 19.3981 51.0064 19.5735 51.0738 19.8541C52.162 19.0026 53.3942 18.5601 54.8179 18.4019C54.1719 18.0126 53.6042 17.6517 52.9915 17.3681C52.8562 17.2633 52.7036 17.183 52.5407 17.1308C52.5403 17.1277 52.5392 17.1247 52.5374 17.1221C52.5355 17.1195 52.5331 17.1175 52.5302 17.1161C52.5274 17.1147 52.5242 17.1141 52.5211 17.1143C52.5179 17.1145 52.5149 17.1155 52.5122 17.1172L52.2368 17.1963L52.5122 17.1172C52.2547 16.9287 51.9385 16.8583 51.6673 16.6964C51.4857 16.5883 51.3776 16.6531 51.3424 16.8509C51.3264 16.9405 51.3245 17.0326 51.3165 17.1234C51.3435 17.1066 51.3723 17.093 51.4023 17.0826C51.4308 17.069 51.4598 17.056 51.4882 17.0418C51.5361 17.0234 51.5809 16.9978 51.621 16.9658C51.6318 16.954 51.644 16.9437 51.6574 16.9349C51.6673 16.9287 51.6793 16.9265 51.6908 16.9288C51.7023 16.9311 51.7124 16.9377 51.7192 16.9473C51.7476 16.9837 51.7248 16.9992 51.6933 17.0165C51.6565 17.0394 51.6216 17.0653 51.5889 17.0937C51.5528 17.1203 51.5152 17.1448 51.4765 17.1673C51.3951 17.2112 51.3244 17.2726 51.2696 17.3471L51.2479 17.614C51.2917 17.6179 51.3358 17.6129 51.3775 17.5992C51.4192 17.5855 51.4577 17.5634 51.4907 17.5343C51.5286 17.5048 51.5701 17.4803 51.6142 17.4614C51.6577 17.4531 51.6995 17.4374 51.7377 17.4151C51.7522 17.4013 51.7675 17.3883 51.7834 17.3761C51.7942 17.3695 51.8062 17.3651 51.8187 17.3632C51.8313 17.3613 51.844 17.3619 51.8563 17.365C51.8582 17.3558 51.862 17.3471 51.8676 17.3395C51.8731 17.332 51.8802 17.3257 51.8884 17.3211C51.9335 17.2811 51.9882 17.2535 52.0472 17.2408C52.0914 17.2361 52.135 17.2272 52.1775 17.2142L52.054 17.2495C52.0317 17.3113 51.9922 17.3421 51.9304 17.318C51.9415 17.37 51.9051 17.3749 51.8687 17.3798C51.8477 17.4416 51.8106 17.4738 51.742 17.4416C51.6908 17.5285 51.6201 17.6024 51.5356 17.6574C51.451 17.7124 51.3549 17.7471 51.2547 17.7586C51.2393 17.8779 51.1713 18.0287 51.2201 18.1084C51.2422 18.1428 51.2585 18.1806 51.2683 18.2202C51.3708 18.0967 51.5228 18.0448 51.6525 17.9619C51.7143 17.9354 51.7513 17.868 51.8304 17.8798C51.8477 17.9817 51.7538 17.9823 51.7025 18.0207C51.5685 18.1208 51.4419 18.2345 51.2702 18.2752C51.265 18.3063 51.2535 18.336 51.2364 18.3625C51.2193 18.389 51.1969 18.4116 51.1707 18.4291C51.1528 18.6763 51.2269 18.7313 51.4406 18.5762C51.6025 18.4594 51.784 18.371 51.957 18.2672L52.0422 18.2326C52.0663 18.1912 52.1095 18.1418 52.1454 18.1863C52.1917 18.2431 52.1077 18.2481 52.0836 18.274L52.0052 18.3173C51.73 18.543 51.4383 18.7477 51.1324 18.9296C51.1417 19.0273 50.9861 19.115 51.0917 19.2053C51.1874 19.285 51.277 19.17 51.364 19.1292C51.4258 19.1002 51.4678 19.0291 51.5493 19.0384L52.125 18.6602L52.1682 18.722C51.9897 18.8518 51.8267 19.0019 51.6154 19.0878C51.5294 19.1593 51.4377 19.2236 51.3412 19.28V19.28ZM52.5975 17.373C52.6044 17.3618 52.61 17.3498 52.6142 17.3372C52.61 17.3498 52.6044 17.3618 52.5975 17.373V17.373Z" fill="#F7F6FC"/>
<path d="M63.5514 53.3971C63.8263 53.4633 63.8602 53.6443 63.8602 53.8736C63.851 54.4087 63.8485 54.9439 63.8602 55.4802C63.8664 55.7342 63.8182 55.9264 63.5391 55.9975H64.3513C64.2018 55.9227 64.027 55.8998 64.0245 55.6978C64.0171 55.0761 64.0245 54.4545 64.0245 53.8328L64.0739 53.8198L65.0405 56.0692L65.9892 53.8062C66.0572 54.3964 66.051 54.968 66.0603 55.5365C66.064 55.7762 66.0177 55.9567 65.7342 55.9839H67.0102C66.7106 55.9765 66.6779 55.7929 66.6816 55.555C66.6903 54.9989 66.6927 54.4427 66.6816 53.8866C66.6767 53.6462 66.7113 53.4596 67.0108 53.4206C66.7292 53.3941 66.4661 53.4064 66.2048 53.3903C66.0263 53.3792 65.9577 53.4552 65.896 53.611C65.7107 54.0948 65.51 54.5725 65.2895 55.1163C65.0609 54.575 64.8608 54.0942 64.6527 53.6171C64.6125 53.5251 64.6144 53.3879 64.4482 53.3922C64.1456 53.4027 63.8479 53.3971 63.5514 53.3971Z" fill="#F7F6FC"/>
<path d="M22.2184 56.1262L22.949 54.4102L23.5951 56.0749C23.8187 55.6714 23.9552 55.2679 24.1225 54.8779C24.3325 54.3885 24.4104 53.8398 24.7797 53.4072H24.125C24.2485 53.4987 24.4252 53.5215 24.3801 53.694C24.2566 54.1624 24.0713 54.6054 23.8644 55.0893C23.6927 54.64 23.55 54.2445 23.39 53.8534C23.3073 53.6519 23.2714 53.4869 23.5321 53.4103H22.3586C22.9249 53.8188 22.9762 54.2476 22.4395 55.1208C22.261 54.6734 22.0973 54.2483 21.92 53.8287C21.8441 53.6495 21.8379 53.5067 22.1214 53.4122H21.0312C21.5383 54.247 21.7514 55.2061 22.2184 56.1262Z" fill="#F7F6FC"/>
<path d="M64.6975 22.4079C64.5394 22.3536 64.5221 22.432 64.4875 22.5315L64.0243 23.8638L63.5586 25.2011C64.6234 24.3359 65.7778 23.8978 67.0693 23.7748C66.6981 23.4288 65.1793 22.5748 64.6975 22.4079Z" fill="#F7F6FC"/>
<path d="M14.2905 22.3283C14.2577 22.235 14.2157 22.2047 14.112 22.2467C13.2602 22.5798 12.4937 23.0612 11.6797 23.6012C13.0082 23.7471 14.1552 24.1648 15.1965 24.9292C14.8943 24.0624 14.5923 23.1955 14.2905 22.3283Z" fill="#F7F6FC"/>
<path d="M47.8018 53.3973H46.5665C46.8444 53.4591 46.8827 53.6445 46.8654 53.8694C46.858 53.972 46.8654 54.0752 46.8654 54.1784C46.8654 54.5788 46.8654 54.5788 46.4529 54.5801C45.9557 54.5801 45.9538 54.5801 45.9587 54.0709C45.9587 53.8052 45.8883 53.5036 46.3423 53.4184H45.0273C45.2874 53.4598 45.3294 53.6223 45.325 53.8472C45.3145 54.4132 45.3183 54.9793 45.325 55.5453C45.325 55.761 45.3442 55.9779 45.0385 55.9921H46.2577C45.981 55.9711 45.9489 55.7814 45.9489 55.5706C45.9489 55.3754 45.9587 55.1789 45.9489 54.9842C45.9371 54.8044 46.0106 54.763 46.1799 54.7593C46.8593 54.7438 46.8593 54.7383 46.8593 55.4217C46.8593 55.4421 46.8593 55.4631 46.8593 55.4835C46.8525 55.7035 46.934 55.9735 46.5714 56.0026H47.8018C47.5109 55.879 47.4899 55.853 47.488 55.5156C47.488 54.991 47.4923 54.4651 47.488 53.9411C47.4806 53.6915 47.4961 53.4678 47.8018 53.3973Z" fill="#F7F6FC"/>
<path d="M28.733 55.9761C29.2988 55.9946 29.8503 56.0045 30.4006 55.9884C30.5658 55.9734 30.722 55.9069 30.8472 55.7981C31.2233 55.5015 31.1727 54.9855 30.7502 54.7569C30.6644 54.7105 30.547 54.7173 30.4877 54.6104C30.7638 54.4868 31.0251 54.3441 30.9756 53.9894C30.9355 53.6996 30.7539 53.5105 30.4599 53.4487C30.3604 53.4236 30.2586 53.4082 30.156 53.403C29.6941 53.398 29.2296 53.403 28.6836 53.403C29.0616 53.563 29.0641 53.563 29.0653 53.8856C29.0653 54.4306 29.0591 54.9756 29.069 55.52C29.0739 55.7604 29.0431 55.9557 28.733 55.9761ZM30.0998 53.6211C30.3469 53.7626 30.3759 53.9919 30.3049 54.239C30.2339 54.4862 30.0449 54.5641 29.8108 54.5746C29.6934 54.5801 29.6749 54.5128 29.6768 54.4207C29.6768 54.2971 29.6768 54.1735 29.6768 54.0499C29.6768 53.9881 29.6768 53.9264 29.6768 53.8646C29.6743 53.537 29.8114 53.4524 30.0992 53.6211H30.0998ZM29.6743 55.5095C29.6706 55.428 29.6743 55.3464 29.6743 55.2623C29.6743 55.2006 29.6743 55.1388 29.6743 55.077C29.6743 54.7223 29.8429 54.6308 30.1604 54.8112C30.4957 55.0016 30.5205 55.5645 30.1999 55.7759C30.0764 55.8568 29.9337 55.9075 29.7935 55.8537C29.6341 55.7963 29.6792 55.6374 29.6737 55.5095H29.6743Z" fill="#F7F6FC"/>
<path d="M49.0387 54.8285C49.14 54.8094 49.1795 54.8903 49.224 54.9595C49.4291 55.2549 49.6323 55.5509 49.8416 55.845C49.8991 55.9266 49.9485 56.0187 50.077 56.015C50.2993 56.0082 50.5223 56.015 50.7947 56.015C50.3882 55.727 50.2246 55.3173 49.9528 54.9941C49.8293 54.8471 49.8348 54.776 50.0238 54.6957C50.3036 54.577 50.4043 54.3342 50.3747 54.0406C50.345 53.7471 50.1795 53.5463 49.9151 53.4795C49.3006 53.3251 48.6743 53.4178 48.0449 53.4295C48.3 53.4758 48.3587 53.6309 48.3537 53.8571C48.3445 54.3916 48.3537 54.9262 48.35 55.4638C48.35 55.6918 48.4192 55.9662 48.0573 55.9909H49.2858C48.9862 55.9798 48.9559 55.7863 48.9627 55.5583C48.9683 55.3834 48.9578 55.2086 48.9677 55.0343C48.9701 54.9601 48.9078 54.8526 49.0387 54.8285ZM48.9634 54.0913C48.9634 54.0295 48.9634 53.9677 48.9634 53.9059C48.9634 53.5315 49.1486 53.4233 49.4964 53.597C49.7224 53.7119 49.825 54.0993 49.7076 54.3929C49.6236 54.6024 49.2796 54.7513 49.0548 54.6876C48.9535 54.6592 48.9658 54.59 48.9646 54.5214C48.9596 54.3793 48.9615 54.2353 48.9615 54.0913H48.9634Z" fill="#F7F6FC"/>
<path d="M31.3136 55.9713C31.8442 55.9941 32.3562 56.0399 32.8577 55.983C33.4995 55.9095 33.8836 55.396 33.8867 54.728C33.8898 54.0414 33.5254 53.5681 32.8905 53.4451C32.3747 53.3456 31.8547 53.421 31.3105 53.4235C31.6453 53.4569 31.6509 53.6843 31.6502 53.9178C31.6502 54.4534 31.6502 54.9873 31.6502 55.5196C31.649 55.7445 31.6465 55.9657 31.3136 55.9713ZM32.2809 55.4917C32.2704 55.2248 32.2778 54.9566 32.2778 54.6884C32.2778 54.3696 32.2852 54.0501 32.2778 53.7312C32.2728 53.573 32.334 53.5458 32.4773 53.5563C32.7861 53.5823 33.0097 53.7553 33.1134 54.0946C33.242 54.51 33.242 54.9546 33.1134 55.37C33.0739 55.5321 32.9771 55.6745 32.8411 55.7711C32.6978 55.8644 32.5322 55.9163 32.3723 55.8502C32.2123 55.784 32.2858 55.6153 32.2809 55.4917Z" fill="#F7F6FC"/>
<path d="M60.5391 54.7055C60.5391 55.5132 61.1017 56.0773 61.9145 56.0817C62.7175 56.086 63.2876 55.5113 63.2869 54.7018C63.2863 53.8923 62.7125 53.3374 61.8985 53.3423C61.1166 53.3429 60.5397 53.922 60.5391 54.7055ZM61.3957 53.8324C61.5081 53.613 61.6879 53.4844 61.9356 53.4919C62.0499 53.4894 62.162 53.5234 62.2557 53.5889C62.3495 53.6545 62.4199 53.7482 62.4568 53.8564C62.6686 54.4066 62.6666 55.0163 62.4513 55.5651C62.4149 55.6732 62.345 55.767 62.2517 55.8327C62.1583 55.8984 62.0465 55.9325 61.9325 55.9303C61.6588 55.9364 61.4902 55.798 61.3803 55.5675C61.2568 55.3024 61.237 55.0163 61.2302 54.729C61.2345 54.4206 61.2512 54.1148 61.3957 53.8324Z" fill="#F7F6FC"/>
<path d="M50.8796 54.6785C50.8555 55.4571 51.4472 56.0658 52.2415 56.08C53.0475 56.0942 53.63 55.5337 53.6442 54.7292C53.6584 53.9456 53.0883 53.3518 52.3088 53.3406C51.5071 53.3289 50.9043 53.8949 50.8796 54.6785ZM51.6745 54.0086C51.7678 53.7262 51.9321 53.505 52.2526 53.4951C52.5732 53.4852 52.7702 53.6749 52.8542 53.9697C53.0043 54.463 53 54.9904 52.8419 55.4812C52.748 55.7661 52.5652 55.9539 52.2298 55.9335C51.9086 55.9138 51.7678 55.7006 51.6782 55.4355C51.6052 55.1894 51.5714 54.9333 51.5782 54.6766C51.5811 54.4507 51.6135 54.2262 51.6745 54.0086V54.0086Z" fill="#F7F6FC"/>
<path d="M34.4728 55.2C34.4914 55.7623 34.7421 56.0145 35.3005 56.0787C35.4537 56.0922 35.6081 56.0818 35.7581 56.0478C35.9429 56.0189 36.111 55.9243 36.2317 55.7814C36.3524 55.6385 36.4176 55.4569 36.4153 55.2698C36.4264 54.8373 36.4307 54.4047 36.4246 53.9721C36.4209 53.7064 36.4728 53.4895 36.7637 53.416H35.9607C36.1244 53.4877 36.2695 53.5767 36.2726 53.7608C36.2813 54.3256 36.3461 54.8941 36.2189 55.4527C36.1522 55.7463 35.8798 55.9069 35.5556 55.8785C35.2634 55.8526 35.1183 55.7018 35.1078 55.3594C35.0923 54.8651 35.1004 54.3707 35.0936 53.8764C35.0936 53.6422 35.1201 53.4395 35.4456 53.4395C35.4147 53.417 35.3786 53.4027 35.3406 53.3981C34.9601 53.3981 34.5797 53.3981 34.1992 53.3981C34.442 53.4667 34.4642 53.6452 34.463 53.8418C34.4654 54.2941 34.458 54.7501 34.4728 55.2Z" fill="#F7F6FC"/>
<path d="M57.8637 54.1451C57.5883 54.7192 57.7402 55.4373 58.2077 55.7938C58.7161 56.18 59.5153 56.1776 59.9859 55.7858C60.0798 55.7079 60.2077 55.635 60.1014 55.4719C60.0038 55.5571 59.9161 55.6461 59.8186 55.719C59.3769 56.0373 58.7686 55.9341 58.5728 55.4873C58.4664 55.2578 58.4087 55.0087 58.4035 54.7558C58.3983 54.5028 58.4456 54.2515 58.5425 54.0178C58.5918 53.881 58.6803 53.7616 58.797 53.6747C58.9136 53.5878 59.0532 53.5371 59.1984 53.529C59.5406 53.4975 59.7969 53.6403 59.973 53.9289C60.0347 54.0265 60.0767 54.134 60.1669 54.3157V53.3888C60.052 53.5358 59.939 53.5612 59.7784 53.4833C59.6657 53.4333 59.5479 53.3958 59.427 53.3715C58.8112 53.225 58.146 53.5575 57.8637 54.1451Z" fill="#F7F6FC"/>
<path d="M36.9414 55.9243L36.9741 56.0108H39.1192C39.2014 56.0108 39.2539 55.9873 39.2594 55.8915C39.2749 55.6443 39.2971 55.3971 39.3169 55.15C39.2899 55.1575 39.2651 55.1713 39.2444 55.1902C39.2237 55.2091 39.2077 55.2326 39.1976 55.2587C38.9796 55.8007 38.8579 55.868 38.2774 55.8767C37.9957 55.881 37.9216 55.7599 37.9247 55.5096C37.9321 54.9852 37.9321 54.4607 37.9247 53.9363C37.921 53.6712 37.9377 53.4345 38.2829 53.4067H36.9859C37.2947 53.4543 37.3021 53.6712 37.299 53.9122C37.291 54.4684 37.2928 55.0245 37.299 55.5807C37.3009 55.8068 37.2589 55.9811 36.9414 55.9243Z" fill="#F7F6FC"/>
<path d="M39.582 55.9859C40.3078 56.0131 41.0131 56.0131 41.7184 56.0137C41.8055 56.0137 41.8531 55.9754 41.8519 55.8858C41.8475 55.6386 41.9618 55.4038 41.8815 55.1344C41.7215 55.6405 41.4393 55.9321 40.871 55.8833C40.616 55.8617 40.5239 55.7807 40.527 55.536C40.5338 55.0219 40.527 54.5078 40.527 53.9912C40.527 53.736 40.4745 53.4474 40.8568 53.4072H39.6123C39.8989 53.4511 39.8952 53.6606 39.8939 53.8738C39.8939 54.4299 39.8865 54.9861 39.8939 55.5422C39.8995 55.7665 39.8766 55.9525 39.582 55.9859Z" fill="#F7F6FC"/>
<path d="M54.0903 53.6378C54.3516 54.0926 54.6295 54.54 54.8457 55.0158C55.0458 55.4626 54.8574 55.8902 54.417 55.9841H55.8592C55.5078 55.8964 55.5263 55.8945 55.4979 55.5516C55.4213 54.6358 56.0606 54.0753 56.4707 53.4104H55.8055C55.879 53.5309 56.1544 53.4981 56.0136 53.7391C55.8166 54.0759 55.6282 54.4189 55.4188 54.7897C55.2255 54.4331 55.0569 54.1285 54.8945 53.8201C54.8092 53.6582 54.7258 53.4876 55.0013 53.4178H53.8457C53.9433 53.5043 54.0427 53.5569 54.0903 53.6378Z" fill="#F7F6FC"/>
<path d="M43.5514 55.9941H44.7663C44.2024 55.2012 43.9769 54.2311 43.4865 53.3289C43.1604 54.0624 42.8516 54.7551 42.5446 55.449C42.4507 55.661 42.3593 55.8711 42.0332 55.9965C42.4038 56.0101 42.6706 56.0355 42.9881 55.9755C42.8534 55.9088 42.7342 55.9452 42.6688 55.8482C42.5545 55.6789 42.7392 55.2853 42.9442 55.2754C43.1295 55.2667 43.3148 55.2791 43.5001 55.2723C43.8367 55.2599 43.8089 55.559 43.8806 55.7444C43.9633 55.9619 43.7187 55.9026 43.5514 55.9941ZM43.5575 55.0702C43.4167 55.229 43.1252 55.1153 42.8596 55.119L43.2382 54.2539C43.2885 54.3399 43.333 54.4291 43.3716 54.5209C43.4359 54.7112 43.6595 54.9553 43.5575 55.0702Z" fill="#F7F6FC"/>
<path d="M27.3366 55.9946H28.5453C28.3891 55.9081 28.3075 55.7666 28.2402 55.6164C28.1222 55.355 28.0092 55.0905 27.8937 54.8279L27.2316 53.3071C26.8956 54.0635 26.5874 54.7556 26.2823 55.4483C26.189 55.659 26.0865 55.8605 25.832 55.9847H26.7554C26.5497 55.9081 26.3848 55.9396 26.3613 55.7523C26.3566 55.6938 26.3635 55.6349 26.3817 55.579C26.3999 55.5232 26.4291 55.4716 26.4675 55.4272C26.506 55.3827 26.5528 55.3464 26.6054 55.3203C26.6581 55.2943 26.7153 55.2789 26.7739 55.2753C26.9283 55.2753 27.0828 55.2815 27.2365 55.2753C27.5787 55.2586 27.5361 55.5639 27.6145 55.7462C27.7109 55.9773 27.4391 55.8858 27.3366 55.9946ZM26.6103 55.1146C26.71 54.8154 26.8367 54.5258 26.9889 54.2495L27.3545 55.1146H26.6103Z" fill="#F7F6FC"/>
<path d="M33.7031 51.3723C33.7026 51.3074 33.6894 51.2432 33.6642 51.1834C33.6389 51.1236 33.6022 51.0693 33.556 51.0238C33.5098 50.9782 33.455 50.9421 33.3949 50.9177C33.3348 50.8933 33.2705 50.8809 33.2056 50.8814C33.1407 50.8818 33.0765 50.895 33.0167 50.9203C32.957 50.9455 32.9027 50.9823 32.8572 51.0286C32.8116 51.0748 32.7756 51.1295 32.7512 51.1897C32.7267 51.2498 32.7144 51.3142 32.7149 51.3791C32.7195 51.5078 32.7742 51.6297 32.8673 51.7187C32.9604 51.8076 33.0845 51.8568 33.2133 51.8556C33.2772 51.8563 33.3407 51.8443 33.4 51.8204C33.4593 51.7965 33.5133 51.761 33.5589 51.7161C33.6044 51.6711 33.6406 51.6176 33.6653 51.5586C33.6901 51.4996 33.7029 51.4363 33.7031 51.3723V51.3723Z" fill="#F7F6FC"/>
<path d="M27.6662 51.855C27.7306 51.8548 27.7943 51.8416 27.8534 51.8161C27.9125 51.7906 27.9659 51.7533 28.0102 51.7066C28.0546 51.6598 28.089 51.6046 28.1114 51.5442C28.1338 51.4838 28.1437 51.4194 28.1405 51.3551C28.1368 51.2253 28.0822 51.1021 27.9884 51.0123C27.8947 50.9224 27.7694 50.8731 27.6396 50.8749C27.5098 50.8805 27.3874 50.9365 27.2982 51.031C27.2091 51.1255 27.1603 51.2511 27.1622 51.381C27.1638 51.4454 27.1781 51.5088 27.2044 51.5675C27.2306 51.6263 27.2683 51.6793 27.3152 51.7234C27.3621 51.7674 27.4172 51.8018 27.4775 51.8244C27.5377 51.847 27.6019 51.8574 27.6662 51.855Z" fill="#F7F6FC"/>
<path d="M25.3607 51.3736C25.362 51.2437 25.3123 51.1185 25.2221 51.0251C25.132 50.9317 25.0087 50.8775 24.8789 50.8743C24.7497 50.8764 24.6263 50.9283 24.5343 51.0191C24.4423 51.1099 24.3888 51.2326 24.3848 51.3618C24.3838 51.4262 24.3955 51.4902 24.4193 51.55C24.4432 51.6098 24.4786 51.6643 24.5237 51.7102C24.5687 51.7562 24.6225 51.7928 24.6817 51.8179C24.741 51.8429 24.8047 51.8559 24.8691 51.8562C24.9333 51.858 24.9973 51.8468 25.0572 51.8234C25.1171 51.7999 25.1716 51.7645 25.2175 51.7195C25.2634 51.6744 25.2997 51.6206 25.3243 51.5611C25.3489 51.5017 25.3613 51.4379 25.3607 51.3736V51.3736Z" fill="#F7F6FC"/>
<path d="M44.3414 50.8735C44.2116 50.8759 44.0876 50.9275 43.9945 51.0179C43.9014 51.1083 43.8461 51.2308 43.8399 51.3605C43.8389 51.4905 43.8895 51.6156 43.9807 51.7083C44.0718 51.801 44.196 51.8537 44.3259 51.8548C44.3904 51.8574 44.4547 51.8469 44.5149 51.8238C44.5751 51.8008 44.63 51.7657 44.6763 51.7207C44.7225 51.6757 44.7591 51.6218 44.7838 51.5622C44.8085 51.5026 44.8209 51.4386 44.82 51.3741C44.8219 51.3097 44.8109 51.2455 44.7877 51.1854C44.7646 51.1253 44.7297 51.0703 44.6852 51.0238C44.6407 50.9772 44.5874 50.94 44.5283 50.9142C44.4693 50.8884 44.4058 50.8746 44.3414 50.8735V50.8735Z" fill="#F7F6FC"/>
<path d="M49.8921 50.8743C49.7624 50.8771 49.6388 50.9303 49.5475 51.0225C49.4561 51.1147 49.4041 51.2388 49.4023 51.3686C49.4024 51.4332 49.4153 51.4971 49.4403 51.5566C49.4652 51.6161 49.5017 51.6701 49.5477 51.7154C49.5937 51.7607 49.6482 51.7964 49.708 51.8205C49.7679 51.8445 49.8319 51.8565 49.8965 51.8556C49.9609 51.8572 50.025 51.8457 50.0848 51.8216C50.1446 51.7976 50.1989 51.7616 50.2443 51.7158C50.2897 51.67 50.3252 51.6155 50.3488 51.5554C50.3724 51.4954 50.3834 51.4312 50.3813 51.3668C50.3821 51.3022 50.3699 51.238 50.3456 51.1781C50.3214 51.1183 50.2854 51.0638 50.2399 51.018C50.1943 50.9721 50.1401 50.9358 50.0804 50.9111C50.0207 50.8865 49.9567 50.8739 49.8921 50.8743V50.8743Z" fill="#F7F6FC"/>
<path d="M42.0437 51.3847C42.0482 51.256 42.0022 51.1307 41.9157 51.0353C41.8292 50.94 41.7089 50.8822 41.5805 50.8743C41.446 50.8714 41.3158 50.9217 41.2181 51.0142C41.1204 51.1068 41.0631 51.2341 41.0586 51.3686C41.0606 51.4974 41.1126 51.6205 41.2035 51.7117C41.2944 51.803 41.4171 51.8555 41.5459 51.858C41.6098 51.8603 41.6736 51.8498 41.7334 51.8272C41.7932 51.8045 41.8479 51.7701 41.8943 51.7261C41.9407 51.682 41.9778 51.6291 42.0034 51.5704C42.0291 51.5118 42.0428 51.4487 42.0437 51.3847V51.3847Z" fill="#F7F6FC"/>
<path d="M35.9907 51.8555C36.1193 51.8565 36.2432 51.8069 36.3356 51.7174C36.428 51.628 36.4816 51.5058 36.4848 51.3772C36.4841 51.2484 36.4345 51.1248 36.3461 51.0313C36.2577 50.9378 36.1371 50.8814 36.0086 50.8735C35.8746 50.8732 35.7458 50.9253 35.6496 51.0187C35.5535 51.1121 35.4977 51.2394 35.4941 51.3735C35.4983 51.5025 35.5524 51.6249 35.6451 51.7149C35.7377 51.8048 35.8616 51.8552 35.9907 51.8555Z" fill="#F7F6FC"/>
<path d="M30.9222 51.3638C30.9103 51.2423 30.8539 51.1295 30.7639 51.0471C30.6738 50.9647 30.5565 50.9186 30.4345 50.9176C30.3125 50.9166 30.1944 50.9608 30.103 51.0417C30.0117 51.1226 29.9534 51.2345 29.9395 51.3557C29.9383 51.4221 29.9505 51.488 29.9754 51.5495C30.0003 51.611 30.0375 51.6667 30.0846 51.7134C30.1317 51.7601 30.1879 51.7967 30.2496 51.8211C30.3112 51.8454 30.3772 51.857 30.4435 51.855C30.5073 51.8546 30.5703 51.8414 30.629 51.8164C30.6877 51.7914 30.7408 51.755 30.7853 51.7093C30.8298 51.6636 30.8648 51.6096 30.8883 51.5503C30.9118 51.4909 30.9234 51.4276 30.9222 51.3638V51.3638Z" fill="#F7F6FC"/>
<path d="M22.5797 51.4132C22.5858 51.3471 22.5785 51.2804 22.5582 51.2171C22.538 51.1539 22.5052 51.0954 22.4618 51.0451C22.4185 50.9948 22.3654 50.9537 22.3059 50.9244C22.2463 50.8951 22.1815 50.878 22.1152 50.8743C21.9866 50.8722 21.862 50.9187 21.7662 51.0045C21.6703 51.0903 21.6104 51.2091 21.5983 51.3372C21.5919 51.4657 21.6359 51.5916 21.7209 51.6882C21.8059 51.7848 21.9252 51.8444 22.0535 51.8544C22.117 51.8602 22.1811 51.8533 22.2419 51.8342C22.3028 51.8152 22.3593 51.7842 22.4082 51.7432C22.4571 51.7022 22.4975 51.652 22.5269 51.5953C22.5563 51.5387 22.5742 51.4768 22.5797 51.4132V51.4132Z" fill="#F7F6FC"/>
<path d="M18.8184 51.3723C18.822 51.5013 18.8756 51.6237 18.9678 51.7139C19.06 51.804 19.1836 51.8548 19.3125 51.8556C19.4408 51.8567 19.5645 51.8075 19.6569 51.7184C19.7493 51.6293 19.803 51.5075 19.8066 51.3791C19.8067 51.3129 19.7937 51.2474 19.7684 51.1862C19.7432 51.125 19.7061 51.0694 19.6594 51.0226C19.6126 50.9758 19.5571 50.9386 19.496 50.9133C19.4349 50.8879 19.3694 50.8749 19.3032 50.8749C19.1752 50.8832 19.0549 50.9386 18.9653 51.0305C18.8758 51.1223 18.8234 51.2441 18.8184 51.3723V51.3723Z" fill="#F7F6FC"/>
<path d="M16.5531 51.8549C16.6816 51.8512 16.8037 51.7975 16.8933 51.7052C16.9829 51.6129 17.033 51.4893 17.033 51.3606C17.0274 51.2321 16.9733 51.1105 16.8816 51.0203C16.7899 50.9302 16.6674 50.8782 16.5388 50.8749C16.4048 50.8789 16.2776 50.9353 16.1846 51.032C16.0915 51.1286 16.04 51.2579 16.041 51.3921C16.0502 51.5204 16.1086 51.6402 16.204 51.7265C16.2995 51.8128 16.4245 51.8588 16.5531 51.8549V51.8549Z" fill="#F7F6FC"/>
<path d="M13.7653 51.8557C13.8941 51.8538 14.017 51.8016 14.1079 51.7103C14.1988 51.619 14.2505 51.4958 14.252 51.3669C14.2538 51.2358 14.2034 51.1094 14.112 51.0154C14.0668 50.9688 14.0128 50.9317 13.9532 50.906C13.8936 50.8803 13.8295 50.8667 13.7646 50.8658C13.6998 50.8649 13.6353 50.8768 13.575 50.9008C13.5147 50.9248 13.4598 50.9605 13.4133 51.0058C13.3193 51.0972 13.2655 51.2222 13.2637 51.3533C13.2627 51.4196 13.2749 51.4853 13.2997 51.5467C13.3245 51.6081 13.3614 51.6639 13.4082 51.7108C13.455 51.7576 13.5107 51.7946 13.572 51.8195C13.6334 51.8444 13.6991 51.8567 13.7653 51.8557V51.8557Z" fill="#F7F6FC"/>
<path d="M52.6875 51.8551C52.7514 51.8548 52.8145 51.8417 52.8732 51.8165C52.9319 51.7913 52.9849 51.7545 53.0291 51.7084C53.0733 51.6622 53.1078 51.6077 53.1305 51.548C53.1532 51.4883 53.1636 51.4246 53.1612 51.3607C53.1595 51.232 53.1076 51.109 53.0166 51.0179C52.9255 50.9269 52.8026 50.8749 52.6739 50.8732C52.6077 50.8744 52.5423 50.8887 52.4815 50.9152C52.4208 50.9417 52.3659 50.98 52.32 51.0279C52.2741 51.0757 52.2381 51.1321 52.214 51.1939C52.19 51.2557 52.1783 51.3216 52.1798 51.3879C52.1868 51.5166 52.2439 51.6375 52.3387 51.7248C52.4335 51.8121 52.5587 51.8588 52.6875 51.8551Z" fill="#F7F6FC"/>
<path d="M63.5115 51.8556C63.5756 51.8566 63.6393 51.845 63.6989 51.8213C63.7585 51.7977 63.8128 51.7625 63.8587 51.7177C63.9046 51.673 63.9412 51.6196 63.9665 51.5606C63.9917 51.5017 64.005 51.4383 64.0056 51.3742C64.0056 51.2446 63.9551 51.1201 63.865 51.0271C63.7749 50.934 63.6521 50.8797 63.5227 50.8755C63.4584 50.874 63.3946 50.8855 63.3349 50.9094C63.2753 50.9332 63.2211 50.9689 63.1756 51.0143C63.1301 51.0597 63.0943 51.1138 63.0703 51.1735C63.0463 51.2331 63.0346 51.2969 63.036 51.3612C63.0322 51.4255 63.0418 51.49 63.0641 51.5504C63.0864 51.6108 63.121 51.666 63.1657 51.7125C63.2103 51.7589 63.2641 51.7956 63.3236 51.8202C63.3832 51.8448 63.4471 51.8569 63.5115 51.8556V51.8556Z" fill="#F7F6FC"/>
<path d="M47.6009 51.3563C47.6002 51.2922 47.5869 51.2288 47.5617 51.1698C47.5365 51.1108 47.4999 51.0574 47.454 51.0126C47.408 50.9678 47.3537 50.9325 47.2942 50.9088C47.2346 50.8851 47.1709 50.8733 47.1068 50.8743C46.9773 50.8808 46.8553 50.9366 46.7657 51.0302C46.6761 51.1239 46.6258 51.2483 46.625 51.3779C46.6294 51.5079 46.6847 51.6309 46.779 51.7203C46.8734 51.8097 46.9991 51.8583 47.129 51.8556C47.1932 51.8554 47.2567 51.8421 47.3157 51.8166C47.3746 51.791 47.4277 51.7538 47.4718 51.7071C47.516 51.6604 47.5501 51.6053 47.5723 51.545C47.5945 51.4847 47.6042 51.4205 47.6009 51.3563Z" fill="#F7F6FC"/>
<path d="M55.4741 51.8548C55.5379 51.8534 55.6008 51.8393 55.6592 51.8133C55.7175 51.7874 55.7701 51.7501 55.814 51.7037C55.8578 51.6572 55.892 51.6025 55.9145 51.5428C55.9371 51.483 55.9476 51.4194 55.9453 51.3555C55.9403 51.2272 55.8862 51.1057 55.7943 51.016C55.7024 50.9263 55.5796 50.8753 55.4512 50.8735C55.3171 50.8781 55.1901 50.9351 55.0977 51.0325C55.0053 51.1298 54.9548 51.2596 54.9571 51.3938C54.9665 51.5228 55.0257 51.6431 55.1222 51.7292C55.2187 51.8152 55.3449 51.8603 55.4741 51.8548V51.8548Z" fill="#F7F6FC"/>
<path d="M60.8974 51.8549C61.0264 51.8501 61.1484 51.795 61.2373 51.7013C61.3261 51.6077 61.3749 51.4829 61.373 51.3538C61.3638 51.2254 61.307 51.1051 61.2138 51.0164C61.1206 50.9277 60.9976 50.877 60.869 50.8743C60.74 50.8779 60.6175 50.9315 60.5272 51.0237C60.4369 51.1159 60.3858 51.2395 60.3848 51.3686C60.3846 51.4348 60.3979 51.5003 60.424 51.5612C60.45 51.622 60.4882 51.6769 60.5362 51.7225C60.5842 51.768 60.641 51.8032 60.7031 51.826C60.7652 51.8488 60.8314 51.8587 60.8974 51.8549V51.8549Z" fill="#F7F6FC"/>
<path d="M38.7795 51.8549C38.9081 51.8546 39.0314 51.8032 39.1222 51.712C39.213 51.6208 39.2639 51.4973 39.2637 51.3686C39.2628 51.2397 39.212 51.1161 39.1219 51.0239C39.0318 50.9317 38.9095 50.8781 38.7807 50.8743C38.5145 50.8681 38.2613 51.1214 38.2718 51.3822C38.2794 51.5112 38.3364 51.6323 38.431 51.7203C38.5255 51.8084 38.6503 51.8566 38.7795 51.8549V51.8549Z" fill="#F7F6FC"/>
<path d="M58.2513 51.8549C58.315 51.8534 58.3778 51.8393 58.436 51.8134C58.4943 51.7875 58.5468 51.7503 58.5906 51.7041C58.6344 51.6578 58.6686 51.6032 58.6913 51.5437C58.7139 51.4841 58.7246 51.4206 58.7226 51.3569C58.7194 51.2279 58.6659 51.1053 58.5736 51.0153C58.4813 50.9252 58.3574 50.8748 58.2285 50.8749C58.1003 50.8809 57.9789 50.9342 57.8877 51.0244C57.7965 51.1147 57.7419 51.2355 57.7344 51.3637C57.736 51.4299 57.7506 51.4952 57.7775 51.5558C57.8044 51.6164 57.8429 51.671 57.8909 51.7167C57.939 51.7623 57.9955 51.798 58.0574 51.8217C58.1192 51.8455 58.1851 51.8567 58.2513 51.8549V51.8549Z" fill="#F7F6FC"/>
<path d="M66.1716 51.8558C66.2357 51.8555 66.299 51.8421 66.3577 51.8164C66.4164 51.7908 66.4693 51.7534 66.5131 51.7066C66.5568 51.6598 66.5906 51.6046 66.6123 51.5442C66.634 51.4839 66.6431 51.4198 66.6392 51.3558C66.6397 51.2914 66.6272 51.2276 66.6024 51.1681C66.5776 51.1087 66.5409 51.0549 66.4947 51.01C66.4486 50.9652 66.3938 50.9301 66.3337 50.907C66.2735 50.8839 66.2094 50.8733 66.145 50.8757C66.081 50.8774 66.018 50.8919 65.9597 50.9183C65.9013 50.9446 65.8488 50.9824 65.8052 51.0292C65.7615 51.0761 65.7276 51.1312 65.7055 51.1913C65.6834 51.2514 65.6734 51.3153 65.6762 51.3793C65.6752 51.4438 65.6875 51.5078 65.7122 51.5674C65.737 51.6269 65.7738 51.6807 65.8203 51.7254C65.8668 51.7701 65.9219 51.8048 65.9824 51.8272C66.0428 51.8496 66.1072 51.8593 66.1716 51.8558Z" fill="#F7F6FC"/>
<path d="M57.4141 55.7468C57.3783 55.5732 57.2955 55.4378 57.0979 55.4316C56.8817 55.4248 56.7724 55.5589 56.7755 55.7579C56.7785 55.9433 56.8922 56.0626 57.0911 56.0601C57.29 56.0576 57.3795 55.9309 57.4141 55.7468Z" fill="#F7F6FC"/>
<path d="M25.3129 56.0593C25.5235 56.0624 25.6427 55.9431 25.6366 55.7343C25.631 55.5427 25.513 55.4401 25.3012 55.4253C25.1301 55.4494 25.0084 55.5538 25.0078 55.7429C25.0072 55.932 25.1147 56.0562 25.3129 56.0593Z" fill="#F7F6FC"/>
<path d="M27.7269 16.982C27.6941 16.4876 27.6917 16.4827 27.2593 16.7286C27.1889 16.7688 27.0907 16.7336 27.045 16.8213C26.0951 17.2428 25.2014 17.7643 24.2656 18.3452C25.6788 18.5225 26.9178 18.9501 27.9869 19.8048C27.9999 19.7819 28.0172 19.7658 28.0166 19.7504C28.0122 19.6268 28.0048 19.5032 27.998 19.3796L27.0222 18.6764C26.9839 18.6727 26.9147 18.664 26.9289 18.6338C26.9554 18.5794 27.0135 18.5992 27.0524 18.6424C27.3032 18.7901 27.5533 18.9403 27.8059 19.0849C27.8677 19.1195 27.9529 19.1949 27.9622 19.0379L27.9381 18.8185L27.1352 18.2741L27.1685 18.2123L27.8529 18.5936C27.9264 18.496 27.8652 18.3903 27.8943 18.2982C27.8845 18.2867 27.8796 18.2719 27.8807 18.2568L27.2056 17.8243C27.4236 17.7773 27.5329 17.9275 27.6688 17.9979C27.7744 18.0529 27.8325 18.0758 27.8411 17.9281C27.8665 17.7081 27.7003 17.6234 27.5509 17.5338C27.6182 17.4251 27.7491 17.6129 27.7788 17.4819C27.8022 17.38 27.8158 17.2446 27.7374 17.1618C27.683 17.1037 27.5774 17.0938 27.4946 17.0623C27.4798 16.762 27.6787 17.0932 27.7269 16.982Z" fill="#F7F6FC"/>
<path d="M39.2126 35.3109C39.2186 35.3069 39.2206 35.2956 39.2239 35.2877L39.2047 35.2705L39.1875 35.3082C39.1961 35.3095 39.2067 35.3148 39.2126 35.3109Z" fill="#F7F6FC"/>
<path d="M28.4488 45.371C28.4448 45.3775 28.4363 45.3847 28.4376 45.39C28.4417 45.4036 28.4469 45.4167 28.4534 45.4293C28.4533 45.4098 28.4518 45.3903 28.4488 45.371Z" fill="#F7F6FC"/>
<path d="M45.5303 12.2534C45.8255 12.3108 45.8817 12.2379 45.7724 11.9778C45.7217 11.8542 45.7551 11.7102 45.6544 11.5829C45.5729 11.7145 45.5 11.8461 45.4129 11.9672C45.2937 12.1335 45.2857 12.2058 45.5303 12.2534Z" fill="#F7F6FC"/>
<path d="M64.2514 20.0215C64.3261 19.9047 64.2347 19.7985 64.1896 19.6699C64.1124 19.7744 64.0043 19.8553 64.0951 19.9832C64.1241 20.0265 64.2248 20.0611 64.2514 20.0215Z" fill="#F7F6FC"/>
<path d="M18.3046 17.9922C18.1107 17.9249 18.0045 18.0695 17.9155 18.2135C17.8521 18.3196 17.822 18.4423 17.8291 18.5657C17.8181 18.6682 17.8384 18.7715 17.8871 18.8623C17.9121 18.9142 17.956 18.9544 18.0098 18.9748C18.0636 18.9951 18.1232 18.994 18.1762 18.9717C18.3528 18.9019 18.1762 18.8407 18.1577 18.7752C18.1169 18.6287 18.2565 18.4458 18.3886 18.4983C18.5208 18.5509 18.5011 18.4693 18.5004 18.4044C18.4992 18.237 18.4906 18.0571 18.3046 17.9922Z" fill="#F7F6FC"/>
<path d="M19.5898 18.2727C19.882 18.2449 19.8931 18.2041 19.709 17.8488C19.6351 17.9781 19.5941 18.1237 19.5898 18.2727V18.2727Z" fill="#F7F6FC"/>
<path d="M16.5684 19.1736C16.9914 19.0859 16.732 18.8888 16.6727 18.7318L16.5684 19.1736Z" fill="#F7F6FC"/>
<path d="M13.8925 20.3127C14.1821 20.2602 14.1463 20.1125 14.0018 19.9005C13.9493 20.0643 13.8783 20.173 13.8925 20.3127Z" fill="#F7F6FC"/>
<path d="M40.5574 60.9913C40.5631 60.9437 40.5544 60.8954 40.5324 60.8527C40.5104 60.8101 40.476 60.775 40.4338 60.7522C40.3875 60.8678 40.4641 60.9178 40.5574 60.9913Z" fill="#F7F6FC"/>
<path d="M40.2768 60.6563L40.3386 60.7261C40.3695 60.7397 40.3917 60.8145 40.4337 60.749L40.3769 60.6872L40.3151 60.6254C40.3015 60.5685 40.2657 60.5209 40.2157 60.571C40.1842 60.6019 40.2466 60.6322 40.2768 60.6563Z" fill="#F7F6FC"/>
<path d="M39.1181 60.6206L39.0723 60.6311L39.107 60.6494L39.1181 60.6206Z" fill="#F7F6FC"/>
<path d="M39.0743 60.6287L39.0645 60.6238L39.0729 60.6301L39.0743 60.6287Z" fill="#F7F6FC"/>
<path d="M40.4333 60.753C40.4333 60.7488 40.4333 60.7446 40.4383 60.7396L40.4316 60.7505L40.4333 60.753Z" fill="#F7F6FC"/>
<path d="M67.7259 24.1192C67.4611 24.1526 67.197 24.1924 66.9335 24.2385C66.2936 24.3279 65.6645 24.4821 65.0558 24.6989H65.0491C64.9791 24.7244 64.9095 24.751 64.8403 24.7786L64.7415 24.8187C64.7201 24.8298 64.6978 24.8389 64.6748 24.8459C64.6414 24.8585 64.6088 24.8729 64.5772 24.8892L64.5253 24.9127L64.4209 24.9615C64.3559 24.9924 64.2914 25.0245 64.2276 25.0579C64.1168 25.1156 64.0081 25.1774 63.9015 25.2433L63.8941 25.2476C63.8607 25.267 63.828 25.2876 63.7959 25.3094C63.636 25.4084 63.4862 25.5228 63.3487 25.6511H63.3536L63.3438 25.6585C64.5883 25.8093 65.8143 25.9545 67.0033 26.3383C68.1922 26.722 69.2682 27.3301 70.4244 27.9511C70.1773 27.2757 69.9537 26.6633 69.7289 26.0515C69.5492 25.5615 69.5498 25.5671 70.0711 25.4528C70.6486 25.3255 71.2242 25.1877 71.8622 25.0406C70.7057 24.0459 69.3673 23.2851 67.9211 22.8005C67.9211 23.1942 67.9161 23.5421 67.9211 23.8931C67.9242 24.0383 67.8945 24.1001 67.7259 24.1192Z" fill="#F7F6FC"/>
<path d="M15.3555 25.5164C15.1495 25.3487 14.9319 25.1957 14.7045 25.0585C14.4106 24.8762 14.0952 24.7309 13.7657 24.6259H13.762C13.686 24.5932 13.6094 24.5641 13.5316 24.5326C12.7525 24.2452 11.9388 24.0623 11.1117 23.9888C10.9536 23.9752 10.898 23.9134 10.9029 23.7583C10.9116 23.4704 10.9029 23.1818 10.9103 22.8932C10.9165 22.7078 10.8795 22.6664 10.6855 22.7356C9.84629 23.0443 9.04777 23.4542 8.3076 23.9561C7.88177 24.2325 7.48084 24.5455 7.10938 24.8916C7.75604 25.0467 8.35948 25.2136 8.9728 25.3298C9.28162 25.3885 9.31497 25.4781 9.20441 25.7623C8.9518 26.4037 8.74056 27.0662 8.51327 27.7193L8.56083 27.7849C10.5898 26.4328 12.8139 25.6721 15.2462 25.5232L15.3573 25.5294L15.3431 25.517L15.3555 25.5164Z" fill="#F7F6FC"/>
</svg>
